<svg xmlns="http://www.w3.org/2000/svg" xmlns:xlink="http://www.w3.org/1999/xlink" width="500" zoomAndPan="magnify" viewBox="0 0 375 374.999991" height="500" preserveAspectRatio="xMidYMid meet" version="1.0"><defs><g/><clipPath id="222839c1f3"><path d="M 33 39 L 286 39 L 286 170 L 33 170 Z M 33 39 " clip-rule="nonzero"/></clipPath><clipPath id="0cc2f61148"><path d="M 246.414062 7.773438 L 332.570312 134.210938 L 119.984375 279.070312 L 33.828125 152.636719 Z M 246.414062 7.773438 " clip-rule="nonzero"/></clipPath><clipPath id="4531c70af4"><path d="M 246.414062 7.773438 L 332.570312 134.210938 L 119.984375 279.070312 L 33.828125 152.636719 Z M 246.414062 7.773438 " clip-rule="nonzero"/></clipPath><clipPath id="3aa4da3b14"><path d="M 246.414062 7.773438 L 332.570312 134.210938 L 119.984375 279.070312 L 33.828125 152.636719 Z M 246.414062 7.773438 " clip-rule="nonzero"/></clipPath><clipPath id="885518f78b"><path d="M 214.953125 96.136719 L 344.703125 96.136719 L 344.703125 246.136719 L 214.953125 246.136719 Z M 214.953125 96.136719 " clip-rule="nonzero"/></clipPath><clipPath id="502a11c9a2"><rect x="0" width="123" y="0" height="153"/></clipPath><clipPath id="c9c43c7bdf"><rect x="0" width="102" y="0" height="151"/></clipPath><clipPath id="7ac76d4425"><path d="M 0.199219 4 L 165.800781 4 L 165.800781 117 L 0.199219 117 Z M 0.199219 4 " clip-rule="nonzero"/></clipPath><clipPath id="f91c27ff60"><rect x="0" width="166" y="0" height="153"/></clipPath></defs><g clip-path="url(#222839c1f3)"><g clip-path="url(#0cc2f61148)"><g clip-path="url(#4531c70af4)"><g clip-path="url(#3aa4da3b14)"><path fill="#000000" d="M 268.59375 40.332031 C 268.335938 39.964844 268.011719 39.882812 267.539062 39.871094 C 267.101562 39.859375 266.449219 39.980469 266.085938 40.140625 C 265.722656 40.300781 265.199219 40.441406 264.925781 40.460938 C 264.65625 40.476562 264.082031 40.726562 263.65625 41.015625 C 262.734375 41.648438 262.515625 42.316406 262.757812 43.800781 C 262.847656 44.339844 262.992188 45.535156 263.085938 46.460938 C 263.371094 49.277344 264.078125 55.570312 264.117188 55.628906 C 264.136719 55.660156 264.273438 56.953125 264.414062 58.503906 C 264.558594 60.054688 264.761719 61.769531 264.871094 62.3125 C 264.976562 62.859375 265.050781 63.414062 265.035156 63.550781 C 265.011719 63.746094 265.824219 71.367188 266.175781 74.226562 C 266.21875 74.570312 266.398438 76.316406 266.578125 78.109375 C 266.757812 79.902344 267.058594 82.675781 267.246094 84.277344 C 267.4375 85.878906 267.679688 88.117188 267.789062 89.25 C 267.898438 90.386719 268.007812 91.339844 268.027344 91.367188 C 268.0625 91.417969 268.523438 95.925781 268.941406 100.304688 C 269.027344 101.175781 269.257812 103.921875 269.460938 106.40625 C 269.660156 108.894531 269.847656 110.960938 269.875 111.003906 C 269.902344 111.042969 270.070312 112.761719 270.246094 114.820312 C 270.425781 116.882812 270.585938 118.582031 270.597656 118.605469 C 270.613281 118.625 270.730469 119.773438 270.859375 121.152344 C 270.988281 122.53125 271.15625 124.167969 271.230469 124.789062 C 271.308594 125.410156 271.300781 126.476562 271.214844 127.160156 C 270.972656 129.074219 271.261719 133.5 271.644531 133.769531 C 271.921875 133.96875 271.898438 134.027344 271.476562 134.183594 C 271.207031 134.285156 270.828125 134.425781 270.636719 134.5 C 270.28125 134.632812 252.472656 132.683594 251.90625 132.445312 C 251.324219 132.203125 249.238281 130.722656 249.011719 130.390625 C 248.886719 130.207031 248.867188 129.808594 248.964844 129.507812 C 249.152344 128.933594 249.53125 125.429688 249.496094 124.585938 C 249.488281 124.320312 249.300781 123.832031 249.082031 123.5 C 248.730469 122.96875 248.417969 122.851562 246.261719 122.457031 C 244.929688 122.214844 243.757812 121.898438 243.65625 121.753906 C 243.554688 121.609375 243.464844 121.03125 243.453125 120.460938 C 243.421875 119.015625 242.996094 118.695312 240.691406 118.398438 C 238.957031 118.175781 238.8125 118.121094 238.820312 117.667969 C 238.839844 116.421875 238.808594 116.199219 238.5625 115.839844 C 238.175781 115.277344 237.472656 115.195312 235.175781 115.449219 C 230.785156 115.929688 226.792969 115.648438 221.980469 114.515625 C 220.097656 114.070312 219.296875 114.277344 218.585938 115.394531 C 218.359375 115.742188 218.105469 116.078125 218.015625 116.140625 C 217.925781 116.203125 217.207031 116.203125 216.417969 116.140625 C 214.488281 115.996094 212.335938 116.203125 210.5625 116.703125 C 208.144531 117.386719 206.253906 117.578125 202.625 117.511719 C 200.726562 117.476562 199.101562 117.429688 199.015625 117.40625 C 198.925781 117.382812 198.328125 117.371094 197.6875 117.382812 C 197.046875 117.390625 196.15625 117.382812 195.707031 117.363281 C 193.78125 117.277344 186.296875 117.328125 183.992188 117.441406 C 176.980469 117.789062 170.828125 118.246094 160.644531 119.179688 C 160.035156 119.234375 159.214844 119.332031 158.824219 119.390625 C 158.433594 119.453125 157.570312 119.570312 156.902344 119.648438 C 154.796875 119.898438 151.214844 120.417969 149.269531 120.757812 C 146.769531 121.191406 145 121.34375 143.164062 121.285156 C 142.328125 121.257812 141.570312 121.289062 141.472656 121.355469 C 141.378906 121.417969 141.050781 121.390625 140.746094 121.289062 C 139.601562 120.910156 136.429688 121.644531 135.015625 122.613281 C 134.222656 123.160156 134.167969 123.261719 134.027344 124.464844 C 133.964844 124.984375 133.765625 125.484375 133.566406 125.621094 C 133.371094 125.753906 132.675781 125.824219 132.015625 125.777344 C 130.691406 125.683594 130.425781 125.789062 130.199219 126.488281 C 130.054688 126.9375 129.933594 126.992188 128.277344 127.355469 C 127.1875 127.59375 125.589844 128.15625 124.101562 128.820312 C 121.144531 130.140625 120.019531 130.574219 118.183594 131.101562 C 116.183594 131.675781 111.9375 132.375 110.644531 132.347656 C 110.164062 132.335938 105.449219 133.269531 102.792969 133.902344 C 101.738281 134.152344 100.023438 134.550781 98.980469 134.78125 C 97.933594 135.015625 97.046875 135.230469 97.007812 135.257812 C 96.96875 135.285156 95.9375 135.527344 94.714844 135.796875 C 93.492188 136.066406 92.292969 136.339844 92.050781 136.402344 C 91.804688 136.46875 90.828125 136.691406 89.878906 136.898438 C 88.058594 137.296875 83.121094 138.589844 76.328125 140.449219 C 74.082031 141.066406 72.035156 141.613281 71.785156 141.664062 C 71.53125 141.71875 69.191406 142.351562 66.582031 143.074219 C 63.976562 143.792969 61.636719 144.429688 61.390625 144.488281 C 59.816406 144.855469 54.207031 146.40625 49.371094 147.8125 C 48.585938 148.039062 47.742188 148.273438 47.492188 148.328125 C 46.683594 148.511719 44.671875 149.101562 42.574219 149.765625 C 41.449219 150.121094 40.132812 150.53125 39.65625 150.675781 C 35.949219 151.78125 33.949219 152.449219 33.910156 152.59375 C 33.882812 152.683594 35.640625 155.324219 37.816406 158.457031 L 41.765625 164.15625 L 44.527344 163.398438 C 47.191406 162.671875 50.179688 161.890625 52.761719 161.25 C 53.4375 161.082031 54.785156 160.726562 55.757812 160.457031 C 56.726562 160.1875 58.058594 159.84375 58.714844 159.691406 C 59.375 159.539062 59.945312 159.390625 59.992188 159.359375 C 60.035156 159.328125 60.65625 159.167969 61.375 158.996094 C 63.773438 158.429688 64.242188 158.3125 66.6875 157.648438 C 68.023438 157.285156 71.332031 156.425781 74.03125 155.738281 C 81.71875 153.78125 82.046875 153.695312 86.523438 152.53125 C 88.851562 151.925781 90.960938 151.382812 91.207031 151.324219 C 91.792969 151.191406 96.910156 149.875 99.347656 149.226562 C 100.382812 148.953125 101.847656 148.589844 102.59375 148.417969 C 103.34375 148.246094 104.609375 147.941406 105.40625 147.734375 C 106.203125 147.53125 108.160156 147.027344 109.753906 146.617188 C 112.609375 145.882812 116.984375 144.859375 119.703125 144.292969 C 120.464844 144.132812 121.980469 144.015625 123.070312 144.03125 C 125.417969 144.066406 127.179688 143.914062 128.386719 143.570312 C 129.160156 143.351562 129.324219 143.386719 129.753906 143.847656 C 130.203125 144.332031 130.324219 144.347656 131.28125 144.050781 C 131.851562 143.875 132.492188 143.730469 132.703125 143.734375 C 133.242188 143.746094 133.585938 144.332031 133.566406 145.210938 C 133.542969 146.332031 133.855469 146.601562 135.492188 146.855469 C 137.605469 147.1875 139.378906 147.089844 139.949219 146.609375 C 140.238281 146.367188 140.582031 146.253906 140.867188 146.3125 C 141.117188 146.359375 142.023438 146.132812 142.882812 145.808594 C 143.742188 145.480469 144.96875 145.089844 145.605469 144.9375 C 147.332031 144.519531 153.574219 143.664062 157.914062 143.25 C 165.105469 142.558594 168.425781 142.339844 176.75 142.011719 C 180.386719 141.871094 188.28125 141.90625 191.921875 142.078125 C 192.800781 142.121094 193.992188 142.175781 194.570312 142.199219 C 202.46875 142.515625 216.074219 144.222656 222.015625 145.644531 C 228.785156 147.265625 234.308594 148.839844 236.8125 149.863281 C 238.964844 150.742188 240.285156 150.542969 242.160156 149.054688 C 242.878906 148.488281 243.210938 148.027344 243.855469 146.695312 C 244.296875 145.785156 244.769531 144.820312 244.90625 144.546875 C 245.132812 144.105469 245.355469 143.992188 247.167969 143.402344 L 249.179688 142.75 L 260.597656 144.019531 C 266.882812 144.714844 272.035156 145.234375 272.054688 145.167969 C 272.070312 145.101562 272.578125 144.941406 273.179688 144.8125 C 273.78125 144.679688 274.863281 144.402344 275.582031 144.191406 C 276.304688 143.980469 277.210938 143.753906 277.597656 143.6875 C 277.984375 143.617188 278.441406 143.46875 278.613281 143.351562 C 279.152344 142.988281 282.765625 142.074219 284.128906 141.960938 C 285.660156 141.832031 285.984375 141.503906 285.707031 140.375 C 285.609375 139.976562 285.546875 139.539062 285.566406 139.402344 C 285.585938 139.265625 285.523438 138.699219 285.433594 138.144531 C 285.339844 137.589844 285.109375 135.9375 284.921875 134.472656 C 284.734375 133.003906 284.464844 131.722656 284.324219 131.621094 C 284.179688 131.515625 283.484375 131.5 282.78125 131.578125 C 281.882812 131.679688 281.617188 131.648438 281.878906 131.46875 C 282.085938 131.328125 282.296875 131.007812 282.34375 130.757812 C 282.480469 130.097656 281.683594 125.65625 281.238281 124.550781 C 281.027344 124.03125 280.796875 123.167969 280.730469 122.636719 C 280.664062 122.105469 280.492188 120.9375 280.355469 120.042969 C 280.21875 119.148438 280.125 116.976562 279.996094 117.480469 C 279.363281 119.980469 279.628906 114.746094 279.3125 112.554688 C 278.996094 110.359375 278.625 107.734375 278.484375 106.71875 C 278.347656 105.699219 277.980469 103.171875 277.671875 101.097656 C 277.359375 99.023438 276.984375 96.398438 276.835938 95.265625 C 276.492188 92.660156 275.59375 86.410156 275.21875 84.011719 C 274.898438 81.953125 274.730469 80.835938 274.3125 77.890625 C 274.152344 76.765625 273.949219 75.335938 273.859375 74.71875 C 273.769531 74.101562 273.605469 72.949219 273.496094 72.15625 C 272.929688 68.03125 272.480469 64.898438 271.992188 61.617188 C 271.886719 60.886719 271.761719 60.011719 271.714844 59.671875 C 271.671875 59.332031 271.339844 57.027344 270.984375 54.554688 C 270.625 52.082031 270.050781 48.019531 269.707031 45.523438 C 269.265625 42.339844 269.023438 40.941406 268.59375 40.332031 Z M 278.449219 119.769531 C 278.507812 119.851562 278.554688 120.171875 278.558594 120.480469 C 278.5625 120.785156 278.519531 120.96875 278.460938 120.882812 C 278.402344 120.800781 278.355469 120.480469 278.351562 120.171875 C 278.347656 119.867188 278.390625 119.683594 278.449219 119.769531 Z M 278.671875 121.402344 C 278.679688 121.417969 278.695312 121.449219 278.710938 121.5 C 278.910156 122.164062 279.171875 124.554688 279.050781 124.636719 C 278.996094 124.675781 278.945312 124.683594 278.9375 124.660156 C 278.722656 123.796875 278.523438 121.191406 278.671875 121.402344 Z M 280.089844 128.085938 C 280.273438 128.359375 280.503906 129.5 280.4375 129.980469 C 280.390625 130.320312 280.308594 130.53125 280.25 130.445312 C 280.113281 130.257812 279.890625 128.105469 280 128.035156 C 280.027344 128.015625 280.058594 128.035156 280.089844 128.085938 Z M 283.765625 147.929688 C 283.707031 147.84375 283.578125 147.828125 283.480469 147.898438 C 283.382812 147.964844 283.351562 148.085938 283.40625 148.171875 C 283.464844 148.257812 283.59375 148.269531 283.691406 148.203125 C 283.789062 148.136719 283.824219 148.011719 283.765625 147.929688 Z M 283.21875 147.15625 C 283.164062 147.082031 283.003906 147.042969 282.738281 147.035156 C 281.59375 147.015625 277.585938 147.855469 275.613281 148.53125 L 274.09375 149.050781 L 273.84375 149.875 C 273.707031 150.328125 273.632812 150.753906 273.679688 150.820312 C 273.726562 150.886719 273.882812 152.09375 274.035156 153.5 C 274.382812 156.804688 274.601562 157.769531 275.429688 159.730469 C 276.0625 161.21875 276.289062 162.382812 276.601562 165.726562 C 276.746094 167.277344 277.0625 167.53125 278.539062 167.28125 C 279.21875 167.167969 279.8125 167.132812 279.863281 167.203125 C 279.914062 167.277344 280.011719 167.769531 280.082031 168.304688 C 280.230469 169.386719 280.59375 169.628906 281.328125 169.128906 C 281.648438 168.910156 281.71875 168.632812 281.628906 167.914062 C 281.503906 166.867188 281.671875 166.675781 283.125 166.21875 C 284.398438 165.820312 284.445312 165.75 283.507812 165.648438 L 282.6875 165.554688 L 282.398438 162.867188 C 282.210938 161.136719 282.203125 159.617188 282.371094 158.613281 C 282.550781 157.554688 282.539062 156.722656 282.332031 156.054688 C 281.976562 154.878906 281.789062 152.941406 281.960938 152.183594 C 282.027344 151.890625 282.050781 150.964844 282.015625 150.128906 C 281.933594 148.390625 281.976562 148.257812 282.765625 147.714844 C 283.144531 147.453125 283.296875 147.269531 283.21875 147.15625 Z M 238.640625 119.402344 C 238.757812 119.574219 237.917969 124.140625 237.75 124.253906 C 237.667969 124.3125 236.933594 124.304688 236.125 124.238281 C 234.726562 124.125 234.679688 124.105469 235.253906 123.855469 C 235.585938 123.707031 236.050781 123.53125 236.28125 123.457031 C 236.933594 123.253906 237.757812 122.320312 237.96875 121.546875 C 238.167969 120.800781 237.765625 119.933594 236.96875 119.398438 C 236.582031 119.140625 236.625 119.125 237.558594 119.207031 C 238.113281 119.253906 238.601562 119.34375 238.640625 119.402344 Z M 234.214844 119.03125 C 234.285156 119.132812 234 119.285156 233.46875 119.589844 C 232.921875 119.902344 232.453125 120.15625 232.429688 120.160156 C 232.214844 120.167969 231.6875 119.417969 231.667969 119.074219 C 231.640625 118.65625 231.671875 118.644531 232.527344 118.742188 C 233.621094 118.867188 234.132812 118.917969 234.214844 119.03125 Z M 233.988281 124.003906 L 233.058594 123.945312 C 232.550781 123.914062 230.738281 123.75 229.039062 123.582031 C 227.339844 123.410156 225.417969 123.234375 224.773438 123.1875 C 224.128906 123.144531 223.5625 123.046875 223.511719 122.972656 C 223.464844 122.898438 223.238281 122.914062 223.011719 123.003906 C 222.347656 123.265625 222.339844 123.167969 222.882812 120.386719 C 223.019531 119.699219 223.179688 118.855469 223.242188 118.507812 L 223.351562 117.878906 L 225.6875 118.09375 C 226.972656 118.214844 228.003906 118.378906 227.980469 118.460938 C 227.957031 118.546875 227.492188 118.558594 226.949219 118.492188 C 226.402344 118.421875 225.863281 118.429688 225.75 118.507812 C 225.636719 118.582031 225.476562 118.546875 225.394531 118.425781 C 224.980469 117.816406 223.648438 119.273438 223.304688 120.714844 C 223.132812 121.449219 223.527344 121.988281 224.183594 121.910156 C 224.429688 121.878906 226.035156 121.988281 227.753906 122.148438 C 229.476562 122.308594 231.109375 122.382812 231.382812 122.308594 C 231.785156 122.203125 231.964844 122.300781 232.308594 122.800781 C 232.542969 123.144531 233.015625 123.558594 233.363281 123.714844 Z M 231.882812 121.171875 C 231.882812 121.175781 231.886719 121.179688 231.890625 121.183594 C 231.925781 121.238281 231.925781 121.316406 231.890625 121.386719 C 231.832031 121.5 231.691406 121.558594 231.578125 121.515625 C 231.464844 121.476562 231.421875 121.351562 231.484375 121.238281 C 231.542969 121.125 231.683594 121.066406 231.792969 121.105469 C 231.832031 121.121094 231.859375 121.144531 231.882812 121.171875 Z M 229.554688 118.523438 C 229.5625 118.535156 229.5625 118.546875 229.558594 118.5625 C 229.535156 118.648438 229.359375 118.699219 229.167969 118.675781 C 228.886719 118.644531 228.894531 118.613281 229.207031 118.523438 C 229.382812 118.472656 229.519531 118.476562 229.554688 118.523438 Z M 150.800781 123.195312 C 150.886719 123.324219 150.882812 123.476562 150.789062 123.542969 C 150.566406 123.695312 150.238281 123.566406 150.300781 123.34375 C 150.382812 123.035156 150.640625 122.960938 150.800781 123.195312 Z M 149.777344 123.230469 C 149.957031 123.496094 149.878906 123.566406 149.273438 123.667969 C 148.867188 123.738281 148.359375 123.402344 148.613281 123.226562 C 148.902344 123.03125 149.644531 123.03125 149.777344 123.230469 Z M 149.777344 123.230469 " fill-opacity="1" fill-rule="nonzero"/></g></g></g></g><g clip-path="url(#885518f78b)"><path fill="#000000" d="M 283.398438 172.53125 C 289.109375 172.472656 301.046875 171.148438 317.3125 171.148438 C 301.046875 171.148438 289.109375 169.820312 283.398438 169.765625 C 290.992188 165.929688 309.320312 154.117188 344.730469 133.644531 C 309.320312 154.113281 289.945312 164.113281 282.832031 168.777344 C 285.636719 163.792969 290.457031 152.78125 298.589844 138.671875 C 290.457031 152.78125 283.34375 162.46875 280.433594 167.394531 C 280.910156 158.890625 279.863281 137.089844 279.863281 96.144531 C 279.863281 137.089844 278.816406 158.890625 279.292969 167.394531 C 276.386719 162.46875 269.269531 152.78125 261.136719 138.671875 C 269.269531 152.78125 274.089844 163.796875 276.894531 168.777344 C 269.777344 164.113281 250.40625 154.117188 214.996094 133.644531 C 250.40625 154.113281 268.734375 165.921875 276.328125 169.765625 C 270.617188 169.824219 258.679688 171.148438 242.414062 171.148438 C 258.679688 171.148438 270.617188 172.476562 276.328125 172.53125 C 268.734375 176.371094 250.40625 188.179688 214.996094 208.648438 C 250.40625 188.179688 269.78125 178.179688 276.894531 173.515625 C 274.089844 178.5 269.269531 189.511719 261.136719 203.621094 C 269.269531 189.511719 276.382812 179.824219 279.292969 174.898438 C 278.816406 183.402344 279.863281 205.203125 279.863281 246.148438 C 279.863281 205.203125 280.910156 183.402344 280.433594 174.898438 C 283.339844 179.824219 290.457031 189.511719 298.589844 203.621094 C 290.457031 189.511719 285.636719 178.496094 282.832031 173.515625 C 289.949219 178.179688 309.320312 188.175781 344.730469 208.648438 C 309.320312 188.183594 290.992188 176.375 283.398438 172.53125 Z M 283.398438 172.53125 " fill-opacity="1" fill-rule="nonzero"/></g><g transform="matrix(1, 0, 0, 1, 223, 169)"><g clip-path="url(#502a11c9a2)"><g fill="#ff3131" fill-opacity="1"><g transform="translate(1.169727, 116.119837)"><g><path d="M 57.796875 1.828125 C 51.285156 1.828125 45.03125 0.710938 39.03125 -1.515625 C 33.039062 -3.753906 27.679688 -7.132812 22.953125 -11.65625 C 18.222656 -16.1875 14.484375 -21.882812 11.734375 -28.75 C 8.992188 -35.613281 7.625 -43.71875 7.625 -53.0625 C 7.625 -65.875 10.085938 -76.726562 15.015625 -85.625 C 19.953125 -94.519531 26.535156 -101.28125 34.765625 -105.90625 C 43.003906 -110.53125 52.15625 -112.84375 62.21875 -112.84375 C 67 -112.84375 70.988281 -112.460938 74.1875 -111.703125 C 77.394531 -110.941406 80.140625 -110.050781 82.421875 -109.03125 C 84.710938 -108.019531 86.796875 -107.128906 88.671875 -106.359375 C 90.554688 -105.597656 92.460938 -105.21875 94.390625 -105.21875 C 96.429688 -105.21875 97.929688 -105.773438 98.890625 -106.890625 C 99.859375 -108.015625 100.34375 -109.441406 100.34375 -111.171875 L 102.328125 -111.171875 L 104.609375 -77.015625 L 102.78125 -77.015625 C 100.445312 -86.972656 95.898438 -94.820312 89.140625 -100.5625 C 82.378906 -106.3125 73.863281 -109.1875 63.59375 -109.1875 C 51.289062 -109.1875 41.9375 -104.992188 35.53125 -96.609375 C 29.125 -88.222656 25.921875 -76.40625 25.921875 -61.15625 C 25.921875 -55.257812 26.679688 -49.03125 28.203125 -42.46875 C 29.734375 -35.914062 32.097656 -29.816406 35.296875 -24.171875 C 38.503906 -18.523438 42.695312 -13.921875 47.875 -10.359375 C 53.0625 -6.804688 59.316406 -5.03125 66.640625 -5.03125 C 75.585938 -5.03125 81.6875 -7.140625 84.9375 -11.359375 C 88.195312 -15.578125 89.828125 -21.753906 89.828125 -29.890625 L 89.828125 -49.71875 C 89.828125 -52.664062 88.988281 -54.570312 87.3125 -55.4375 C 85.632812 -56.300781 82.40625 -56.734375 77.625 -56.734375 L 77.625 -58.71875 L 117.265625 -58.71875 L 117.265625 -56.734375 C 114.421875 -56.734375 111.929688 -56.300781 109.796875 -55.4375 C 107.660156 -54.570312 106.59375 -52.664062 106.59375 -49.71875 L 106.75 0 L 104.609375 0 C 104.609375 -5.695312 104.226562 -9.660156 103.46875 -11.890625 C 102.707031 -14.128906 101.003906 -15.25 98.359375 -15.25 C 96.734375 -15.25 95.109375 -14.738281 93.484375 -13.71875 C 91.859375 -12.707031 89.617188 -10.929688 86.765625 -8.390625 C 81.992188 -4.222656 77.394531 -1.476562 72.96875 -0.15625 C 68.550781 1.164062 63.492188 1.828125 57.796875 1.828125 Z M 57.796875 1.828125 "/></g></g></g></g></g><g transform="matrix(1, 0, 0, 1, 155, 169)"><g clip-path="url(#c9c43c7bdf)"><g fill="#000000" fill-opacity="1"><g transform="translate(1.058923, 114.33723)"><g><path d="M 4.515625 -107.6875 L 4.515625 -109.640625 L 47.234375 -109.640625 C 52.847656 -109.640625 58.335938 -109.363281 63.703125 -108.8125 C 69.066406 -108.257812 73.953125 -107.082031 78.359375 -105.28125 C 82.773438 -103.476562 86.285156 -100.796875 88.890625 -97.234375 C 91.492188 -93.671875 92.796875 -88.882812 92.796875 -82.875 C 92.796875 -76.957031 91.566406 -72.191406 89.109375 -68.578125 C 86.660156 -64.972656 83.453125 -62.21875 79.484375 -60.3125 C 75.523438 -58.40625 71.238281 -57.125 66.625 -56.46875 C 62.019531 -55.820312 57.507812 -55.5 53.09375 -55.5 L 31.4375 -55.5 L 31.4375 -10.078125 C 31.4375 -6.671875 32.285156 -4.460938 33.984375 -3.453125 C 35.691406 -2.453125 38.300781 -1.953125 41.8125 -1.953125 L 41.8125 0 L 4.515625 0 L 4.515625 -1.953125 C 8.023438 -1.953125 10.628906 -2.453125 12.328125 -3.453125 C 14.035156 -4.460938 14.890625 -6.671875 14.890625 -10.078125 L 14.890625 -99.5625 C 14.890625 -103.070312 14.035156 -105.300781 12.328125 -106.25 C 10.628906 -107.207031 8.023438 -107.6875 4.515625 -107.6875 Z M 47.234375 -107.6875 L 31.4375 -107.6875 L 31.4375 -57.453125 L 47.53125 -57.453125 C 54.144531 -57.453125 59.554688 -58.128906 63.765625 -59.484375 C 67.984375 -60.835938 71.117188 -63.242188 73.171875 -66.703125 C 75.222656 -70.160156 76.25 -74.945312 76.25 -81.0625 C 76.25 -98.8125 66.578125 -107.6875 47.234375 -107.6875 Z M 47.234375 -107.6875 "/></g></g></g></g></g><g transform="matrix(1, 0, 0, 1, 25, 169)"><g clip-path="url(#f91c27ff60)"><g clip-path="url(#7ac76d4425)"><g fill="#000000" fill-opacity="1"><g transform="translate(0.307244, 116.119837)"><g><path d="M 0 -111.171875 L 42.25 -111.171875 L 42.25 -109.34375 C 37.164062 -109.34375 33.734375 -108.882812 31.953125 -107.96875 C 30.171875 -107.050781 30.09375 -104.863281 31.71875 -101.40625 L 70.609375 -21.046875 L 83.875 -59.015625 L 63.890625 -100.1875 C 62.265625 -103.75 60.613281 -106.140625 58.9375 -107.359375 C 57.257812 -108.578125 54.335938 -109.1875 50.171875 -109.1875 L 50.171875 -111.171875 L 114.375 -111.171875 L 114.375 -109.1875 C 110.101562 -109.1875 107.023438 -108.578125 105.140625 -107.359375 C 103.265625 -106.140625 101.664062 -103.703125 100.34375 -100.046875 L 92.875 -78.84375 L 120.78125 -21.046875 L 148.53125 -100.1875 C 149.65625 -103.445312 149.65625 -105.757812 148.53125 -107.125 C 147.414062 -108.5 144.46875 -109.1875 139.6875 -109.1875 L 139.6875 -111.171875 L 164.703125 -111.171875 L 164.703125 -109.1875 C 160.328125 -109.1875 157.195312 -108.578125 155.3125 -107.359375 C 153.4375 -106.140625 151.835938 -103.703125 150.515625 -100.046875 L 115.59375 0 L 112.390625 0 L 85.09375 -56.421875 L 65.265625 0 L 62.0625 0 L 13.71875 -100.1875 C 12.601562 -102.632812 11.507812 -104.492188 10.4375 -105.765625 C 9.375 -107.035156 8.054688 -107.921875 6.484375 -108.421875 C 4.910156 -108.929688 2.75 -109.1875 0 -109.1875 Z M 91.65625 -81.28125 L 98.359375 -100.1875 C 99.484375 -103.445312 99.484375 -105.757812 98.359375 -107.125 C 97.242188 -108.5 94.296875 -109.1875 89.515625 -109.1875 C 85.546875 -109.082031 82.925781 -108.519531 81.65625 -107.5 C 80.382812 -106.488281 80.515625 -104.457031 82.046875 -101.40625 Z M 91.65625 -81.28125 "/></g></g></g></g></g></g><g fill="#ff3131" fill-opacity="1"><g transform="translate(34.750054, 327.000975)"><g><path d="M 8.921875 -14.546875 C 8.554688 -15.492188 8.21875 -16.140625 7.90625 -16.484375 C 7.601562 -16.828125 7.3125 -17.054688 7.03125 -17.171875 L 7.03125 -17.5 L 10.84375 -17.5 L 10.84375 -17.171875 C 10.476562 -17.054688 10.328125 -16.828125 10.390625 -16.484375 C 10.460938 -16.140625 10.691406 -15.503906 11.078125 -14.578125 L 12.421875 -11.28125 L 13.625 -14.53125 C 13.9375 -15.363281 14.066406 -15.988281 14.015625 -16.40625 C 13.972656 -16.832031 13.742188 -17.085938 13.328125 -17.171875 L 13.328125 -17.5 L 16.078125 -17.5 L 16.078125 -17.171875 C 15.722656 -17.054688 15.382812 -16.820312 15.0625 -16.46875 C 14.75 -16.125 14.421875 -15.476562 14.078125 -14.53125 L 12.671875 -10.703125 L 16.046875 -2.53125 L 20.40625 -14.53125 C 20.988281 -16.113281 20.851562 -16.992188 20 -17.171875 L 20 -17.5 L 22.828125 -17.5 L 22.828125 -17.171875 C 22.472656 -17.054688 22.132812 -16.820312 21.8125 -16.46875 C 21.5 -16.125 21.171875 -15.476562 20.828125 -14.53125 L 15.59375 0 L 14.90625 0 L 11.421875 -8.46875 L 7.96875 0 L 7.28125 0 L 1.75 -14.53125 C 1.382812 -15.488281 1.054688 -16.140625 0.765625 -16.484375 C 0.472656 -16.828125 0.1875 -17.054688 -0.09375 -17.171875 L -0.09375 -17.5 L 3.78125 -17.5 L 3.78125 -17.171875 C 3.394531 -17.054688 3.222656 -16.828125 3.265625 -16.484375 C 3.316406 -16.140625 3.53125 -15.488281 3.90625 -14.53125 L 8.53125 -2.46875 L 11.203125 -9.03125 Z M 8.921875 -14.546875 "/></g></g></g><g fill="#000000" fill-opacity="1"><g transform="translate(58.632865, 327.000975)"><g><path d="M 1.28125 0 L 1.28125 -0.328125 C 1.65625 -0.441406 1.914062 -0.691406 2.0625 -1.078125 C 2.207031 -1.460938 2.28125 -2.160156 2.28125 -3.171875 L 2.28125 -14.328125 C 2.28125 -15.359375 2.207031 -16.0625 2.0625 -16.4375 C 1.914062 -16.8125 1.65625 -17.054688 1.28125 -17.171875 L 1.28125 -17.5 L 12.90625 -17.5 L 13.171875 -14.25 L 12.90625 -14.171875 C 12.46875 -15.273438 11.859375 -16.039062 11.078125 -16.46875 C 10.304688 -16.90625 9.28125 -17.125 8 -17.125 L 4.328125 -17.125 L 4.328125 -9.546875 L 7.53125 -9.546875 C 8.476562 -9.546875 9.210938 -9.609375 9.734375 -9.734375 C 10.265625 -9.859375 10.648438 -10.050781 10.890625 -10.3125 C 11.128906 -10.570312 11.300781 -10.882812 11.40625 -11.25 L 11.703125 -11.25 L 11.703125 -7.46875 L 11.40625 -7.46875 C 11.300781 -7.851562 11.128906 -8.171875 10.890625 -8.421875 C 10.648438 -8.671875 10.265625 -8.859375 9.734375 -8.984375 C 9.210938 -9.109375 8.476562 -9.171875 7.53125 -9.171875 L 4.328125 -9.171875 L 4.328125 -1.5 C 4.328125 -0.75 4.703125 -0.375 5.453125 -0.375 L 8.703125 -0.375 C 9.898438 -0.375 10.890625 -0.582031 11.671875 -1 C 12.453125 -1.414062 13.070312 -2.207031 13.53125 -3.375 L 13.796875 -3.328125 L 13.59375 0 Z M 1.28125 0 "/></g></g></g><g fill="#000000" fill-opacity="1"><g transform="translate(74.555509, 327.000975)"><g><path d="M 1.28125 0 L 1.28125 -0.328125 C 1.65625 -0.441406 1.914062 -0.691406 2.0625 -1.078125 C 2.207031 -1.460938 2.28125 -2.160156 2.28125 -3.171875 L 2.28125 -14.328125 C 2.28125 -15.359375 2.207031 -16.0625 2.0625 -16.4375 C 1.914062 -16.8125 1.65625 -17.054688 1.28125 -17.171875 L 1.28125 -17.5 L 5.328125 -17.5 L 5.328125 -17.171875 C 4.941406 -17.054688 4.675781 -16.8125 4.53125 -16.4375 C 4.394531 -16.0625 4.328125 -15.359375 4.328125 -14.328125 L 4.328125 -1.53125 C 4.328125 -0.78125 4.703125 -0.40625 5.453125 -0.40625 L 8.421875 -0.40625 C 9.617188 -0.40625 10.539062 -0.582031 11.1875 -0.9375 C 11.832031 -1.289062 12.367188 -1.9375 12.796875 -2.875 L 13.078125 -2.828125 L 12.90625 0 Z M 1.28125 0 "/></g></g></g><g fill="#000000" fill-opacity="1"><g transform="translate(89.328343, 327.000975)"><g><path d="M 1.28125 0 L 1.28125 -0.328125 C 1.65625 -0.441406 1.914062 -0.691406 2.0625 -1.078125 C 2.207031 -1.460938 2.28125 -2.160156 2.28125 -3.171875 L 2.28125 -14.328125 C 2.28125 -15.359375 2.207031 -16.0625 2.0625 -16.4375 C 1.914062 -16.8125 1.65625 -17.054688 1.28125 -17.171875 L 1.28125 -17.5 L 7.25 -17.5 C 8.96875 -17.5 10.429688 -17.253906 11.640625 -16.765625 C 12.859375 -16.273438 13.851562 -15.617188 14.625 -14.796875 C 15.394531 -13.984375 15.957031 -13.078125 16.3125 -12.078125 C 16.664062 -11.085938 16.84375 -10.085938 16.84375 -9.078125 C 16.863281 -7.328125 16.503906 -5.765625 15.765625 -4.390625 C 15.023438 -3.023438 13.972656 -1.953125 12.609375 -1.171875 C 11.253906 -0.390625 9.660156 0 7.828125 0 Z M 4.328125 -2.203125 C 4.328125 -1.617188 4.425781 -1.164062 4.625 -0.84375 C 4.820312 -0.53125 5.265625 -0.375 5.953125 -0.375 L 7.78125 -0.375 C 9.957031 -0.375 11.632812 -1.003906 12.8125 -2.265625 C 13.988281 -3.523438 14.578125 -5.460938 14.578125 -8.078125 C 14.578125 -9.742188 14.25 -11.257812 13.59375 -12.625 C 12.945312 -13.988281 11.988281 -15.078125 10.71875 -15.890625 C 9.457031 -16.710938 7.894531 -17.125 6.03125 -17.125 L 4.328125 -17.125 Z M 4.328125 -2.203125 "/></g></g></g><g fill="#000000" fill-opacity="1"><g transform="translate(108.650454, 327.000975)"><g><path d="M 1.28125 0 L 1.28125 -0.328125 C 1.65625 -0.441406 1.914062 -0.691406 2.0625 -1.078125 C 2.207031 -1.460938 2.28125 -2.160156 2.28125 -3.171875 L 2.28125 -14.328125 C 2.28125 -15.359375 2.207031 -16.0625 2.0625 -16.4375 C 1.914062 -16.8125 1.65625 -17.054688 1.28125 -17.171875 L 1.28125 -17.5 L 12.90625 -17.5 L 13.171875 -14.25 L 12.90625 -14.171875 C 12.46875 -15.273438 11.859375 -16.039062 11.078125 -16.46875 C 10.304688 -16.90625 9.28125 -17.125 8 -17.125 L 4.328125 -17.125 L 4.328125 -9.546875 L 7.53125 -9.546875 C 8.476562 -9.546875 9.210938 -9.609375 9.734375 -9.734375 C 10.265625 -9.859375 10.648438 -10.050781 10.890625 -10.3125 C 11.128906 -10.570312 11.300781 -10.882812 11.40625 -11.25 L 11.703125 -11.25 L 11.703125 -7.46875 L 11.40625 -7.46875 C 11.300781 -7.851562 11.128906 -8.171875 10.890625 -8.421875 C 10.648438 -8.671875 10.265625 -8.859375 9.734375 -8.984375 C 9.210938 -9.109375 8.476562 -9.171875 7.53125 -9.171875 L 4.328125 -9.171875 L 4.328125 -1.5 C 4.328125 -0.75 4.703125 -0.375 5.453125 -0.375 L 8.703125 -0.375 C 9.898438 -0.375 10.890625 -0.582031 11.671875 -1 C 12.453125 -1.414062 13.070312 -2.207031 13.53125 -3.375 L 13.796875 -3.328125 L 13.59375 0 Z M 1.28125 0 "/></g></g></g><g fill="#000000" fill-opacity="1"><g transform="translate(124.573099, 327.000975)"><g><path d="M 14 0.171875 C 13.363281 0.171875 12.863281 0.0195312 12.5 -0.28125 C 12.132812 -0.59375 11.8125 -1.046875 11.53125 -1.640625 C 11.257812 -2.234375 10.941406 -2.960938 10.578125 -3.828125 C 10.210938 -4.691406 9.90625 -5.445312 9.65625 -6.09375 C 9.40625 -6.75 9.132812 -7.289062 8.84375 -7.71875 C 8.550781 -8.15625 8.175781 -8.484375 7.71875 -8.703125 C 7.269531 -8.921875 6.671875 -9.03125 5.921875 -9.03125 L 4.328125 -9.03125 L 4.328125 -3.171875 C 4.328125 -2.160156 4.394531 -1.460938 4.53125 -1.078125 C 4.675781 -0.691406 4.941406 -0.441406 5.328125 -0.328125 L 5.328125 0 L 1.28125 0 L 1.28125 -0.328125 C 1.65625 -0.441406 1.914062 -0.691406 2.0625 -1.078125 C 2.207031 -1.460938 2.28125 -2.160156 2.28125 -3.171875 L 2.28125 -14.328125 C 2.28125 -15.359375 2.207031 -16.0625 2.0625 -16.4375 C 1.914062 -16.8125 1.65625 -17.054688 1.28125 -17.171875 L 1.28125 -17.5 L 6.203125 -17.5 C 7.898438 -17.5 9.222656 -17.328125 10.171875 -16.984375 C 11.117188 -16.640625 11.789062 -16.175781 12.1875 -15.59375 C 12.582031 -15.007812 12.78125 -14.34375 12.78125 -13.59375 C 12.78125 -12.425781 12.363281 -11.429688 11.53125 -10.609375 C 10.695312 -9.785156 9.460938 -9.28125 7.828125 -9.09375 C 8.585938 -9 9.207031 -8.828125 9.6875 -8.578125 C 10.175781 -8.335938 10.578125 -8.015625 10.890625 -7.609375 C 11.210938 -7.203125 11.5 -6.707031 11.75 -6.125 C 12 -5.539062 12.273438 -4.863281 12.578125 -4.09375 C 12.972656 -3.09375 13.304688 -2.316406 13.578125 -1.765625 C 13.859375 -1.222656 14.113281 -0.835938 14.34375 -0.609375 C 14.582031 -0.390625 14.84375 -0.28125 15.125 -0.28125 C 15.207031 -0.28125 15.273438 -0.28125 15.328125 -0.28125 C 15.390625 -0.28125 15.457031 -0.285156 15.53125 -0.296875 L 15.53125 0 C 15.34375 0.0625 15.101562 0.101562 14.8125 0.125 C 14.519531 0.15625 14.25 0.171875 14 0.171875 Z M 4.328125 -9.40625 L 6.421875 -9.40625 C 7.859375 -9.40625 8.921875 -9.738281 9.609375 -10.40625 C 10.304688 -11.082031 10.65625 -11.957031 10.65625 -13.03125 C 10.65625 -13.78125 10.484375 -14.460938 10.140625 -15.078125 C 9.796875 -15.691406 9.242188 -16.1875 8.484375 -16.5625 C 7.722656 -16.9375 6.726562 -17.125 5.5 -17.125 C 5.3125 -17.125 5.117188 -17.117188 4.921875 -17.109375 C 4.722656 -17.097656 4.523438 -17.085938 4.328125 -17.078125 Z M 4.328125 -9.40625 "/></g></g></g><g fill="#000000" fill-opacity="1"><g transform="translate(141.07066, 327.000975)"><g><path d="M 6.03125 -19.15625 L 6.03125 -18.90625 C 5.8125 -18.601562 5.492188 -18.210938 5.078125 -17.734375 C 4.671875 -17.265625 4.226562 -16.789062 3.75 -16.3125 C 3.28125 -15.832031 2.847656 -15.445312 2.453125 -15.15625 L 1 -15.15625 L 1 -15.453125 C 1.226562 -15.753906 1.492188 -16.125 1.796875 -16.5625 C 2.097656 -17 2.390625 -17.445312 2.671875 -17.90625 C 2.953125 -18.363281 3.1875 -18.78125 3.375 -19.15625 Z M 6.03125 -19.15625 "/></g></g></g><g fill="#000000" fill-opacity="1"><g transform="translate(149.294533, 327.000975)"><g><path d="M 7.125 0.25 C 5.8125 0.25 4.628906 0.0546875 3.578125 -0.328125 C 2.523438 -0.710938 1.707031 -1.113281 1.125 -1.53125 L 1 -5 L 1.28125 -5.046875 C 1.613281 -4.179688 2.050781 -3.378906 2.59375 -2.640625 C 3.132812 -1.898438 3.820312 -1.304688 4.65625 -0.859375 C 5.488281 -0.421875 6.476562 -0.203125 7.625 -0.203125 C 8.289062 -0.203125 8.90625 -0.335938 9.46875 -0.609375 C 10.039062 -0.890625 10.492188 -1.28125 10.828125 -1.78125 C 11.171875 -2.28125 11.34375 -2.863281 11.34375 -3.53125 C 11.34375 -4.15625 11.175781 -4.703125 10.84375 -5.171875 C 10.507812 -5.640625 10.078125 -6.046875 9.546875 -6.390625 C 9.015625 -6.742188 8.453125 -7.050781 7.859375 -7.3125 C 7.265625 -7.570312 6.703125 -7.8125 6.171875 -8.03125 C 5.191406 -8.425781 4.335938 -8.828125 3.609375 -9.234375 C 2.890625 -9.640625 2.332031 -10.128906 1.9375 -10.703125 C 1.539062 -11.285156 1.34375 -12.019531 1.34375 -12.90625 C 1.34375 -13.882812 1.597656 -14.726562 2.109375 -15.4375 C 2.617188 -16.144531 3.332031 -16.691406 4.25 -17.078125 C 5.164062 -17.472656 6.234375 -17.671875 7.453125 -17.671875 C 8.585938 -17.671875 9.5625 -17.546875 10.375 -17.296875 C 11.1875 -17.046875 11.835938 -16.789062 12.328125 -16.53125 L 12.421875 -13.625 L 12.171875 -13.546875 C 11.703125 -14.628906 11.019531 -15.519531 10.125 -16.21875 C 9.238281 -16.925781 8.082031 -17.28125 6.65625 -17.28125 C 5.988281 -17.28125 5.363281 -17.148438 4.78125 -16.890625 C 4.207031 -16.628906 3.75 -16.253906 3.40625 -15.765625 C 3.070312 -15.285156 2.90625 -14.6875 2.90625 -13.96875 C 2.90625 -13.382812 3.046875 -12.875 3.328125 -12.4375 C 3.609375 -12.007812 3.984375 -11.632812 4.453125 -11.3125 C 4.921875 -11 5.425781 -10.722656 5.96875 -10.484375 C 6.519531 -10.242188 7.0625 -10.015625 7.59375 -9.796875 C 8.53125 -9.429688 9.40625 -9.039062 10.21875 -8.625 C 11.039062 -8.207031 11.703125 -7.695312 12.203125 -7.09375 C 12.710938 -6.5 12.96875 -5.726562 12.96875 -4.78125 C 12.96875 -3.738281 12.6875 -2.835938 12.125 -2.078125 C 11.5625 -1.328125 10.832031 -0.75 9.9375 -0.34375 C 9.039062 0.0507812 8.101562 0.25 7.125 0.25 Z M 7.125 0.25 "/></g></g></g><g fill="#ff3131" fill-opacity="1"><g transform="translate(170.722705, 327.000975)"><g><path d="M 1.28125 0 L 1.28125 -0.328125 C 1.65625 -0.441406 1.914062 -0.691406 2.0625 -1.078125 C 2.207031 -1.460938 2.28125 -2.160156 2.28125 -3.171875 L 2.28125 -14.328125 C 2.28125 -15.359375 2.207031 -16.0625 2.0625 -16.4375 C 1.914062 -16.8125 1.65625 -17.054688 1.28125 -17.171875 L 1.28125 -17.5 L 6.34375 -17.5 C 8.082031 -17.5 9.445312 -17.253906 10.4375 -16.765625 C 11.425781 -16.285156 12.128906 -15.671875 12.546875 -14.921875 C 12.960938 -14.171875 13.171875 -13.390625 13.171875 -12.578125 C 13.171875 -10.910156 12.570312 -9.550781 11.375 -8.5 C 10.1875 -7.445312 8.425781 -6.921875 6.09375 -6.921875 L 4.328125 -6.921875 L 4.328125 -3.171875 C 4.328125 -2.160156 4.394531 -1.460938 4.53125 -1.078125 C 4.675781 -0.691406 4.941406 -0.441406 5.328125 -0.328125 L 5.328125 0 Z M 4.328125 -7.296875 L 6.046875 -7.296875 C 7.648438 -7.296875 8.867188 -7.710938 9.703125 -8.546875 C 10.546875 -9.378906 10.96875 -10.53125 10.96875 -12 C 10.96875 -12.894531 10.78125 -13.726562 10.40625 -14.5 C 10.03125 -15.28125 9.4375 -15.910156 8.625 -16.390625 C 7.8125 -16.878906 6.726562 -17.125 5.375 -17.125 C 5.207031 -17.125 5.023438 -17.117188 4.828125 -17.109375 C 4.640625 -17.097656 4.472656 -17.085938 4.328125 -17.078125 Z M 4.328125 -7.296875 "/></g></g></g><g fill="#000000" fill-opacity="1"><g transform="translate(185.722704, 327.000975)"><g><path d="M 1.28125 0 L 1.28125 -0.328125 C 1.65625 -0.441406 1.914062 -0.691406 2.0625 -1.078125 C 2.207031 -1.460938 2.28125 -2.160156 2.28125 -3.171875 L 2.28125 -14.328125 C 2.28125 -15.359375 2.207031 -16.0625 2.0625 -16.4375 C 1.914062 -16.8125 1.65625 -17.054688 1.28125 -17.171875 L 1.28125 -17.5 L 5.328125 -17.5 L 5.328125 -17.171875 C 4.941406 -17.054688 4.675781 -16.8125 4.53125 -16.4375 C 4.394531 -16.0625 4.328125 -15.359375 4.328125 -14.328125 L 4.328125 -1.53125 C 4.328125 -0.78125 4.703125 -0.40625 5.453125 -0.40625 L 8.421875 -0.40625 C 9.617188 -0.40625 10.539062 -0.582031 11.1875 -0.9375 C 11.832031 -1.289062 12.367188 -1.9375 12.796875 -2.875 L 13.078125 -2.828125 L 12.90625 0 Z M 1.28125 0 "/></g></g></g><g fill="#000000" fill-opacity="1"><g transform="translate(200.495537, 327.000975)"><g><path d="M -0.421875 0 L -0.421875 -0.328125 C -0.078125 -0.441406 0.257812 -0.671875 0.59375 -1.015625 C 0.925781 -1.359375 1.285156 -2.003906 1.671875 -2.953125 L 6.59375 -15.15625 C 6.75 -15.550781 6.734375 -15.941406 6.546875 -16.328125 L 6.328125 -16.84375 L 8.203125 -17.703125 L 14.34375 -2.921875 C 14.726562 -1.992188 15.070312 -1.359375 15.375 -1.015625 C 15.6875 -0.671875 15.976562 -0.441406 16.25 -0.328125 L 16.25 0 L 12.375 0 L 12.375 -0.328125 C 12.757812 -0.441406 12.914062 -0.671875 12.84375 -1.015625 C 12.78125 -1.359375 12.550781 -1.992188 12.15625 -2.921875 L 10.625 -6.59375 L 3.578125 -6.59375 L 2.09375 -2.953125 C 1.46875 -1.367188 1.570312 -0.492188 2.40625 -0.328125 L 2.40625 0 Z M 3.71875 -6.96875 L 10.46875 -6.96875 L 7.046875 -15.203125 Z M 3.71875 -6.96875 "/></g></g></g><g fill="#000000" fill-opacity="1"><g transform="translate(215.968154, 327.000975)"><g><path d="M 4.71875 0 L 4.71875 -0.328125 C 5.101562 -0.441406 5.363281 -0.691406 5.5 -1.078125 C 5.644531 -1.460938 5.710938 -2.160156 5.703125 -3.171875 L 5.703125 -7.875 L 1.921875 -14.71875 C 1.441406 -15.601562 1.015625 -16.203125 0.640625 -16.515625 C 0.273438 -16.835938 -0.0351562 -17.054688 -0.296875 -17.171875 L -0.296875 -17.5 L 3.65625 -17.5 L 3.65625 -17.171875 C 3.28125 -17.054688 3.148438 -16.835938 3.265625 -16.515625 C 3.390625 -16.203125 3.703125 -15.601562 4.203125 -14.71875 L 7.671875 -8.53125 L 11.171875 -14.71875 C 11.609375 -15.488281 11.828125 -16.066406 11.828125 -16.453125 C 11.828125 -16.847656 11.582031 -17.085938 11.09375 -17.171875 L 11.09375 -17.5 L 14.078125 -17.5 L 14.078125 -17.171875 C 13.742188 -17.054688 13.375 -16.835938 12.96875 -16.515625 C 12.570312 -16.203125 12.125 -15.601562 11.625 -14.71875 L 7.796875 -7.921875 L 7.796875 -3.171875 C 7.796875 -2.160156 7.863281 -1.460938 8 -1.078125 C 8.144531 -0.691406 8.410156 -0.441406 8.796875 -0.328125 L 8.796875 0 Z M 4.71875 0 "/></g></g></g><g fill="#ff3131" fill-opacity="1"><g transform="translate(229.421916, 327.000975)"><g><path d="M 10.5 0.25 C 8.644531 0.25 7.023438 -0.113281 5.640625 -0.84375 C 4.265625 -1.582031 3.195312 -2.613281 2.4375 -3.9375 C 1.675781 -5.257812 1.296875 -6.820312 1.296875 -8.625 C 1.296875 -9.875 1.515625 -11.046875 1.953125 -12.140625 C 2.398438 -13.242188 3.023438 -14.207031 3.828125 -15.03125 C 4.640625 -15.863281 5.601562 -16.507812 6.71875 -16.96875 C 7.84375 -17.4375 9.070312 -17.671875 10.40625 -17.671875 C 11.15625 -17.671875 11.890625 -17.609375 12.609375 -17.484375 C 13.335938 -17.359375 14 -17.195312 14.59375 -17 C 15.195312 -16.800781 15.65625 -16.59375 15.96875 -16.375 L 16.078125 -13.421875 L 15.828125 -13.375 C 15.523438 -14.09375 15.070312 -14.742188 14.46875 -15.328125 C 13.875 -15.910156 13.171875 -16.367188 12.359375 -16.703125 C 11.554688 -17.046875 10.660156 -17.21875 9.671875 -17.21875 C 8.472656 -17.21875 7.398438 -16.945312 6.453125 -16.40625 C 5.503906 -15.863281 4.75 -15.066406 4.1875 -14.015625 C 3.625 -12.972656 3.335938 -11.6875 3.328125 -10.15625 C 3.304688 -8.96875 3.46875 -7.789062 3.8125 -6.625 C 4.164062 -5.457031 4.6875 -4.390625 5.375 -3.421875 C 6.070312 -2.453125 6.910156 -1.679688 7.890625 -1.109375 C 8.878906 -0.535156 10.007812 -0.25 11.28125 -0.25 C 12.207031 -0.25 13.046875 -0.46875 13.796875 -0.90625 C 14.546875 -1.351562 15.082031 -1.882812 15.40625 -2.5 L 15.375 -5.046875 C 15.375 -5.828125 15.296875 -6.394531 15.140625 -6.75 C 14.984375 -7.101562 14.632812 -7.34375 14.09375 -7.46875 L 14.09375 -7.78125 L 17.375 -7.78125 L 17.375 -3.078125 C 16.894531 -2.410156 16.273438 -1.828125 15.515625 -1.328125 C 14.753906 -0.828125 13.941406 -0.4375 13.078125 -0.15625 C 12.210938 0.113281 11.351562 0.25 10.5 0.25 Z M 10.5 0.25 "/></g></g></g><g fill="#000000" fill-opacity="1"><g transform="translate(249.179727, 327.000975)"><g><path d="M 14 0.171875 C 13.363281 0.171875 12.863281 0.0195312 12.5 -0.28125 C 12.132812 -0.59375 11.8125 -1.046875 11.53125 -1.640625 C 11.257812 -2.234375 10.941406 -2.960938 10.578125 -3.828125 C 10.210938 -4.691406 9.90625 -5.445312 9.65625 -6.09375 C 9.40625 -6.75 9.132812 -7.289062 8.84375 -7.71875 C 8.550781 -8.15625 8.175781 -8.484375 7.71875 -8.703125 C 7.269531 -8.921875 6.671875 -9.03125 5.921875 -9.03125 L 4.328125 -9.03125 L 4.328125 -3.171875 C 4.328125 -2.160156 4.394531 -1.460938 4.53125 -1.078125 C 4.675781 -0.691406 4.941406 -0.441406 5.328125 -0.328125 L 5.328125 0 L 1.28125 0 L 1.28125 -0.328125 C 1.65625 -0.441406 1.914062 -0.691406 2.0625 -1.078125 C 2.207031 -1.460938 2.28125 -2.160156 2.28125 -3.171875 L 2.28125 -14.328125 C 2.28125 -15.359375 2.207031 -16.0625 2.0625 -16.4375 C 1.914062 -16.8125 1.65625 -17.054688 1.28125 -17.171875 L 1.28125 -17.5 L 6.203125 -17.5 C 7.898438 -17.5 9.222656 -17.328125 10.171875 -16.984375 C 11.117188 -16.640625 11.789062 -16.175781 12.1875 -15.59375 C 12.582031 -15.007812 12.78125 -14.34375 12.78125 -13.59375 C 12.78125 -12.425781 12.363281 -11.429688 11.53125 -10.609375 C 10.695312 -9.785156 9.460938 -9.28125 7.828125 -9.09375 C 8.585938 -9 9.207031 -8.828125 9.6875 -8.578125 C 10.175781 -8.335938 10.578125 -8.015625 10.890625 -7.609375 C 11.210938 -7.203125 11.5 -6.707031 11.75 -6.125 C 12 -5.539062 12.273438 -4.863281 12.578125 -4.09375 C 12.972656 -3.09375 13.304688 -2.316406 13.578125 -1.765625 C 13.859375 -1.222656 14.113281 -0.835938 14.34375 -0.609375 C 14.582031 -0.390625 14.84375 -0.28125 15.125 -0.28125 C 15.207031 -0.28125 15.273438 -0.28125 15.328125 -0.28125 C 15.390625 -0.28125 15.457031 -0.285156 15.53125 -0.296875 L 15.53125 0 C 15.34375 0.0625 15.101562 0.101562 14.8125 0.125 C 14.519531 0.15625 14.25 0.171875 14 0.171875 Z M 4.328125 -9.40625 L 6.421875 -9.40625 C 7.859375 -9.40625 8.921875 -9.738281 9.609375 -10.40625 C 10.304688 -11.082031 10.65625 -11.957031 10.65625 -13.03125 C 10.65625 -13.78125 10.484375 -14.460938 10.140625 -15.078125 C 9.796875 -15.691406 9.242188 -16.1875 8.484375 -16.5625 C 7.722656 -16.9375 6.726562 -17.125 5.5 -17.125 C 5.3125 -17.125 5.117188 -17.117188 4.921875 -17.109375 C 4.722656 -17.097656 4.523438 -17.085938 4.328125 -17.078125 Z M 4.328125 -9.40625 "/></g></g></g><g fill="#000000" fill-opacity="1"><g transform="translate(264.42741, 327.000975)"><g><path d="M 10.203125 0.25 C 9.128906 0.25 8.066406 0.0703125 7.015625 -0.28125 C 5.972656 -0.644531 5.015625 -1.195312 4.140625 -1.9375 C 3.273438 -2.675781 2.582031 -3.613281 2.0625 -4.75 C 1.550781 -5.882812 1.296875 -7.226562 1.296875 -8.78125 C 1.296875 -10.488281 1.671875 -12.015625 2.421875 -13.359375 C 3.171875 -14.703125 4.210938 -15.757812 5.546875 -16.53125 C 6.878906 -17.3125 8.429688 -17.703125 10.203125 -17.703125 C 11.253906 -17.703125 12.300781 -17.515625 13.34375 -17.140625 C 14.394531 -16.773438 15.347656 -16.222656 16.203125 -15.484375 C 17.066406 -14.742188 17.753906 -13.804688 18.265625 -12.671875 C 18.785156 -11.535156 19.046875 -10.203125 19.046875 -8.671875 C 19.046875 -7.117188 18.785156 -5.785156 18.265625 -4.671875 C 17.753906 -3.554688 17.066406 -2.628906 16.203125 -1.890625 C 15.335938 -1.160156 14.382812 -0.617188 13.34375 -0.265625 C 12.300781 0.078125 11.253906 0.25 10.203125 0.25 Z M 3.296875 -10.21875 C 3.347656 -8.96875 3.578125 -7.753906 3.984375 -6.578125 C 4.390625 -5.410156 4.945312 -4.359375 5.65625 -3.421875 C 6.363281 -2.492188 7.191406 -1.753906 8.140625 -1.203125 C 9.097656 -0.648438 10.132812 -0.375 11.25 -0.375 C 12.582031 -0.375 13.691406 -0.664062 14.578125 -1.25 C 15.460938 -1.832031 16.113281 -2.628906 16.53125 -3.640625 C 16.957031 -4.648438 17.144531 -5.78125 17.09375 -7.03125 C 17.050781 -8.320312 16.820312 -9.570312 16.40625 -10.78125 C 16 -11.988281 15.445312 -13.066406 14.75 -14.015625 C 14.050781 -14.972656 13.222656 -15.726562 12.265625 -16.28125 C 11.316406 -16.84375 10.285156 -17.125 9.171875 -17.125 C 7.910156 -17.125 6.832031 -16.832031 5.9375 -16.25 C 5.039062 -15.664062 4.363281 -14.859375 3.90625 -13.828125 C 3.445312 -12.796875 3.242188 -11.59375 3.296875 -10.21875 Z M 3.296875 -10.21875 "/></g></g></g><g fill="#000000" fill-opacity="1"><g transform="translate(285.949168, 327.000975)"><g><path d="M 9.03125 0.25 C 8.125 0.25 7.25 0.132812 6.40625 -0.09375 C 5.570312 -0.332031 4.820312 -0.707031 4.15625 -1.21875 C 3.488281 -1.738281 2.953125 -2.425781 2.546875 -3.28125 C 2.148438 -4.144531 1.953125 -5.203125 1.953125 -6.453125 L 1.953125 -14.328125 C 1.953125 -15.359375 1.878906 -16.0625 1.734375 -16.4375 C 1.597656 -16.8125 1.335938 -17.054688 0.953125 -17.171875 L 0.953125 -17.5 L 5 -17.5 L 5 -17.171875 C 4.632812 -17.054688 4.375 -16.8125 4.21875 -16.4375 C 4.070312 -16.0625 4 -15.359375 4 -14.328125 L 4 -6.59375 C 4 -5.050781 4.253906 -3.816406 4.765625 -2.890625 C 5.285156 -1.960938 5.988281 -1.296875 6.875 -0.890625 C 7.757812 -0.484375 8.742188 -0.28125 9.828125 -0.28125 C 10.359375 -0.28125 10.914062 -0.378906 11.5 -0.578125 C 12.082031 -0.773438 12.628906 -1.113281 13.140625 -1.59375 C 13.648438 -2.082031 14.0625 -2.734375 14.375 -3.546875 C 14.6875 -4.367188 14.84375 -5.382812 14.84375 -6.59375 L 14.84375 -13.328125 C 14.84375 -14.273438 14.773438 -15.007812 14.640625 -15.53125 C 14.515625 -16.0625 14.328125 -16.441406 14.078125 -16.671875 C 13.828125 -16.910156 13.519531 -17.078125 13.15625 -17.171875 L 13.15625 -17.5 L 16.25 -17.5 L 16.25 -17.171875 C 15.882812 -17.054688 15.625 -16.8125 15.46875 -16.4375 C 15.320312 -16.0625 15.25 -15.359375 15.25 -14.328125 L 15.25 -6.671875 C 15.25 -5.003906 14.96875 -3.660156 14.40625 -2.640625 C 13.851562 -1.628906 13.109375 -0.894531 12.171875 -0.4375 C 11.242188 0.0195312 10.195312 0.25 9.03125 0.25 Z M 9.03125 0.25 "/></g></g></g><g fill="#000000" fill-opacity="1"><g transform="translate(304.121458, 327.000975)"><g><path d="M 14.46875 0.203125 L 2.703125 -15.125 L 2.703125 -4.171875 C 2.703125 -3.222656 2.765625 -2.488281 2.890625 -1.96875 C 3.023438 -1.457031 3.222656 -1.078125 3.484375 -0.828125 C 3.742188 -0.585938 4.054688 -0.421875 4.421875 -0.328125 L 4.421875 0 L 1.296875 0 L 1.296875 -0.328125 C 1.679688 -0.441406 1.941406 -0.691406 2.078125 -1.078125 C 2.222656 -1.460938 2.296875 -2.160156 2.296875 -3.171875 L 2.296875 -14.328125 C 2.296875 -15.359375 2.203125 -16.0625 2.015625 -16.4375 C 1.835938 -16.8125 1.5 -17.054688 1 -17.171875 L 1 -17.5 L 3.453125 -17.5 L 14.375 -3.34375 L 14.375 -13.328125 C 14.375 -14.273438 14.304688 -15.007812 14.171875 -15.53125 C 14.035156 -16.0625 13.84375 -16.441406 13.59375 -16.671875 C 13.34375 -16.910156 13.03125 -17.078125 12.65625 -17.171875 L 12.65625 -17.5 L 15.796875 -17.5 L 15.796875 -17.171875 C 15.410156 -17.054688 15.144531 -16.8125 15 -16.4375 C 14.863281 -16.0625 14.796875 -15.359375 14.796875 -14.328125 L 14.796875 0.203125 Z M 14.46875 0.203125 "/></g></g></g><g fill="#000000" fill-opacity="1"><g transform="translate(322.118778, 327.000975)"><g><path d="M 1.28125 0 L 1.28125 -0.328125 C 1.65625 -0.441406 1.914062 -0.691406 2.0625 -1.078125 C 2.207031 -1.460938 2.28125 -2.160156 2.28125 -3.171875 L 2.28125 -14.328125 C 2.28125 -15.359375 2.207031 -16.0625 2.0625 -16.4375 C 1.914062 -16.8125 1.65625 -17.054688 1.28125 -17.171875 L 1.28125 -17.5 L 7.25 -17.5 C 8.96875 -17.5 10.429688 -17.253906 11.640625 -16.765625 C 12.859375 -16.273438 13.851562 -15.617188 14.625 -14.796875 C 15.394531 -13.984375 15.957031 -13.078125 16.3125 -12.078125 C 16.664062 -11.085938 16.84375 -10.085938 16.84375 -9.078125 C 16.863281 -7.328125 16.503906 -5.765625 15.765625 -4.390625 C 15.023438 -3.023438 13.972656 -1.953125 12.609375 -1.171875 C 11.253906 -0.390625 9.660156 0 7.828125 0 Z M 4.328125 -2.203125 C 4.328125 -1.617188 4.425781 -1.164062 4.625 -0.84375 C 4.820312 -0.53125 5.265625 -0.375 5.953125 -0.375 L 7.78125 -0.375 C 9.957031 -0.375 11.632812 -1.003906 12.8125 -2.265625 C 13.988281 -3.523438 14.578125 -5.460938 14.578125 -8.078125 C 14.578125 -9.742188 14.25 -11.257812 13.59375 -12.625 C 12.945312 -13.988281 11.988281 -15.078125 10.71875 -15.890625 C 9.457031 -16.710938 7.894531 -17.125 6.03125 -17.125 L 4.328125 -17.125 Z M 4.328125 -2.203125 "/></g></g></g></svg>