<svg xmlns="http://www.w3.org/2000/svg" xmlns:xlink="http://www.w3.org/1999/xlink" width="500" zoomAndPan="magnify" viewBox="0 0 375 374.999991" height="500" preserveAspectRatio="xMidYMid meet" version="1.0"><defs><g/><clipPath id="198344b55f"><path d="M 34 39 L 286 39 L 286 170 L 34 170 Z M 34 39 " clip-rule="nonzero"/></clipPath><clipPath id="d81a9eae78"><path d="M 246.414062 7.773438 L 332.570312 134.210938 L 119.984375 279.070312 L 33.828125 152.636719 Z M 246.414062 7.773438 " clip-rule="nonzero"/></clipPath><clipPath id="89ff4dc3f9"><path d="M 246.414062 7.773438 L 332.570312 134.210938 L 119.984375 279.070312 L 33.828125 152.636719 Z M 246.414062 7.773438 " clip-rule="nonzero"/></clipPath><clipPath id="078650c6d1"><path d="M 214.953125 96.136719 L 344.703125 96.136719 L 344.703125 246.136719 L 214.953125 246.136719 Z M 214.953125 96.136719 " clip-rule="nonzero"/></clipPath><clipPath id="53d6cb3217"><rect x="0" width="123" y="0" height="153"/></clipPath><clipPath id="8567ad6da7"><rect x="0" width="102" y="0" height="151"/></clipPath><clipPath id="9c44ba3e48"><path d="M 0.199219 4 L 165.800781 4 L 165.800781 117 L 0.199219 117 Z M 0.199219 4 " clip-rule="nonzero"/></clipPath><clipPath id="0609d7edd6"><rect x="0" width="166" y="0" height="153"/></clipPath></defs><g clip-path="url(#198344b55f)"><g clip-path="url(#d81a9eae78)"><g clip-path="url(#89ff4dc3f9)"><path fill="#ffffff" d="M 268.632812 40.390625 C 268.375 40.023438 268.050781 39.941406 267.578125 39.925781 C 267.140625 39.914062 266.488281 40.035156 266.125 40.195312 C 265.761719 40.351562 265.238281 40.496094 264.96875 40.511719 C 264.695312 40.527344 264.121094 40.78125 263.695312 41.070312 C 262.773438 41.699219 262.558594 42.371094 262.800781 43.855469 C 262.890625 44.390625 263.039062 45.589844 263.132812 46.515625 C 263.417969 49.335938 264.136719 55.632812 264.175781 55.695312 C 264.195312 55.726562 264.332031 57.019531 264.476562 58.574219 C 264.621094 60.125 264.828125 61.839844 264.9375 62.386719 C 265.042969 62.933594 265.121094 63.488281 265.105469 63.625 C 265.082031 63.820312 265.902344 71.449219 266.257812 74.3125 C 266.296875 74.65625 266.480469 76.402344 266.664062 78.199219 C 266.84375 79.992188 267.152344 82.769531 267.34375 84.375 C 267.53125 85.976562 267.78125 88.214844 267.890625 89.351562 C 268 90.488281 268.109375 91.441406 268.128906 91.472656 C 268.164062 91.519531 268.628906 96.03125 269.054688 100.417969 C 269.140625 101.289062 269.375 104.039062 269.582031 106.527344 C 269.785156 109.015625 269.972656 111.085938 270 111.125 C 270.027344 111.164062 270.199219 112.886719 270.378906 114.949219 C 270.558594 117.011719 270.71875 118.714844 270.734375 118.738281 C 270.75 118.757812 270.867188 119.90625 271 121.285156 C 271.128906 122.664062 271.300781 124.304688 271.375 124.925781 C 271.453125 125.546875 271.445312 126.617188 271.359375 127.300781 C 271.121094 129.214844 271.414062 133.644531 271.800781 133.917969 C 272.078125 134.113281 272.054688 134.171875 271.632812 134.328125 C 271.363281 134.429688 270.984375 134.570312 270.792969 134.644531 C 270.4375 134.78125 252.628906 132.804688 252.0625 132.566406 C 251.476562 132.324219 249.390625 130.839844 249.164062 130.503906 C 249.039062 130.320312 249.019531 129.925781 249.117188 129.621094 C 249.300781 129.050781 249.675781 125.542969 249.640625 124.695312 C 249.632812 124.429688 249.445312 123.941406 249.226562 123.609375 C 248.875 123.074219 248.5625 122.960938 246.40625 122.5625 C 245.074219 122.316406 243.898438 122 243.796875 121.855469 C 243.699219 121.710938 243.605469 121.128906 243.59375 120.5625 C 243.5625 119.113281 243.132812 118.792969 240.832031 118.492188 C 239.097656 118.269531 238.949219 118.210938 238.957031 117.757812 C 238.976562 116.511719 238.945312 116.289062 238.699219 115.929688 C 238.3125 115.367188 237.605469 115.285156 235.308594 115.535156 C 230.921875 116.011719 226.929688 115.722656 222.113281 114.582031 C 220.230469 114.132812 219.433594 114.339844 218.722656 115.457031 C 218.496094 115.808594 218.242188 116.144531 218.152344 116.203125 C 218.0625 116.265625 217.34375 116.265625 216.554688 116.203125 C 214.625 116.054688 212.472656 116.257812 210.703125 116.757812 C 208.285156 117.441406 206.394531 117.628906 202.765625 117.558594 C 200.867188 117.519531 199.242188 117.46875 199.152344 117.445312 C 199.066406 117.421875 198.46875 117.410156 197.828125 117.421875 C 197.183594 117.429688 196.292969 117.421875 195.847656 117.398438 C 193.921875 117.3125 186.433594 117.351562 184.132812 117.464844 C 177.121094 117.800781 170.972656 118.25 160.789062 119.171875 C 160.179688 119.230469 159.359375 119.324219 158.96875 119.386719 C 158.578125 119.445312 157.714844 119.5625 157.046875 119.640625 C 154.941406 119.886719 151.359375 120.402344 149.417969 120.738281 C 146.917969 121.171875 145.148438 121.320312 143.3125 121.261719 C 142.476562 121.234375 141.714844 121.265625 141.621094 121.328125 C 141.527344 121.394531 141.199219 121.363281 140.894531 121.261719 C 139.75 120.878906 136.578125 121.609375 135.164062 122.582031 C 134.375 123.125 134.320312 123.226562 134.179688 124.433594 C 134.117188 124.949219 133.917969 125.453125 133.71875 125.589844 C 133.523438 125.722656 132.828125 125.789062 132.171875 125.742188 C 130.847656 125.648438 130.578125 125.753906 130.355469 126.453125 C 130.210938 126.902344 130.089844 126.957031 128.433594 127.316406 C 127.34375 127.554688 125.746094 128.113281 124.257812 128.777344 C 121.304688 130.097656 120.179688 130.53125 118.347656 131.054688 C 116.34375 131.625 112.101562 132.324219 110.808594 132.292969 C 110.328125 132.28125 105.613281 133.207031 102.960938 133.835938 C 101.90625 134.085938 100.191406 134.484375 99.144531 134.714844 C 98.101562 134.949219 97.214844 135.160156 97.175781 135.1875 C 97.136719 135.214844 96.105469 135.457031 94.882812 135.726562 C 93.664062 135.992188 92.464844 136.265625 92.21875 136.328125 C 91.972656 136.390625 90.996094 136.613281 90.050781 136.820312 C 88.230469 137.21875 83.292969 138.507812 76.503906 140.359375 C 74.257812 140.972656 72.214844 141.515625 71.960938 141.570312 C 71.707031 141.621094 69.371094 142.253906 66.761719 142.972656 C 64.15625 143.691406 61.820312 144.328125 61.570312 144.382812 C 59.996094 144.746094 54.390625 146.292969 49.554688 147.695312 C 48.773438 147.921875 47.929688 148.152344 47.679688 148.210938 C 46.875 148.390625 44.859375 148.976562 42.765625 149.640625 C 41.636719 149.996094 40.324219 150.40625 39.847656 150.546875 C 36.140625 151.652344 34.140625 152.316406 34.101562 152.460938 C 34.078125 152.554688 35.839844 155.199219 38.015625 158.335938 L 41.972656 164.042969 L 44.734375 163.292969 C 47.394531 162.566406 50.386719 161.789062 52.964844 161.148438 C 53.640625 160.984375 54.988281 160.625 55.960938 160.359375 C 56.929688 160.089844 58.261719 159.75 58.917969 159.597656 C 59.574219 159.445312 60.148438 159.296875 60.191406 159.265625 C 60.234375 159.238281 60.855469 159.074219 61.574219 158.90625 C 63.972656 158.339844 64.441406 158.222656 66.882812 157.5625 C 68.222656 157.199219 71.527344 156.34375 74.226562 155.65625 C 81.910156 153.707031 82.238281 153.625 86.714844 152.464844 C 89.042969 151.859375 91.148438 151.320312 91.398438 151.261719 C 91.984375 151.128906 97.09375 149.816406 99.53125 149.175781 C 100.570312 148.902344 102.03125 148.539062 102.777344 148.367188 C 103.527344 148.199219 104.792969 147.890625 105.589844 147.6875 C 106.386719 147.484375 108.34375 146.984375 109.9375 146.574219 C 112.789062 145.84375 117.164062 144.824219 119.878906 144.257812 C 120.640625 144.101562 122.15625 143.984375 123.246094 144.003906 C 125.59375 144.042969 127.355469 143.890625 128.5625 143.550781 C 129.335938 143.332031 129.5 143.363281 129.929688 143.828125 C 130.382812 144.3125 130.503906 144.328125 131.457031 144.03125 C 132.027344 143.855469 132.667969 143.714844 132.882812 143.71875 C 133.417969 143.730469 133.761719 144.316406 133.746094 145.195312 C 133.722656 146.320312 134.035156 146.585938 135.671875 146.84375 C 137.785156 147.179688 139.558594 147.082031 140.128906 146.605469 C 140.417969 146.363281 140.761719 146.25 141.046875 146.304688 C 141.296875 146.355469 142.203125 146.128906 143.0625 145.804688 C 143.921875 145.480469 145.144531 145.089844 145.785156 144.9375 C 147.507812 144.523438 153.75 143.671875 158.085938 143.261719 C 165.277344 142.578125 168.597656 142.367188 176.921875 142.050781 C 180.558594 141.910156 188.453125 141.957031 192.09375 142.132812 C 192.96875 142.175781 194.160156 142.230469 194.742188 142.257812 C 202.640625 142.582031 216.246094 144.3125 222.1875 145.742188 C 228.960938 147.371094 234.484375 148.953125 236.992188 149.980469 C 239.144531 150.863281 240.460938 150.664062 242.335938 149.179688 C 243.054688 148.613281 243.386719 148.152344 244.027344 146.820312 C 244.46875 145.910156 244.941406 144.941406 245.078125 144.671875 C 245.300781 144.226562 245.523438 144.113281 247.335938 143.527344 L 249.347656 142.878906 L 260.769531 144.160156 C 267.050781 144.867188 272.203125 145.390625 272.222656 145.324219 C 272.238281 145.257812 272.746094 145.097656 273.347656 144.96875 C 273.949219 144.839844 275.03125 144.5625 275.75 144.351562 C 276.472656 144.144531 277.378906 143.917969 277.765625 143.847656 C 278.152344 143.78125 278.609375 143.632812 278.78125 143.515625 C 279.316406 143.152344 282.933594 142.242188 284.292969 142.128906 C 285.824219 142 286.144531 141.675781 285.871094 140.542969 C 285.773438 140.144531 285.707031 139.707031 285.726562 139.570312 C 285.746094 139.433594 285.6875 138.867188 285.589844 138.3125 C 285.496094 137.757812 285.265625 136.101562 285.078125 134.636719 C 284.890625 133.167969 284.617188 131.882812 284.472656 131.78125 C 284.332031 131.675781 283.636719 131.660156 282.933594 131.738281 C 282.035156 131.839844 281.769531 131.804688 282.03125 131.625 C 282.238281 131.484375 282.445312 131.167969 282.496094 130.914062 C 282.628906 130.253906 281.828125 125.804688 281.378906 124.699219 C 281.167969 124.179688 280.9375 123.316406 280.871094 122.785156 C 280.800781 122.25 280.632812 121.082031 280.492188 120.1875 C 280.351562 119.292969 280.257812 117.117188 280.128906 117.621094 C 279.5 120.125 279.761719 114.886719 279.441406 112.691406 C 279.121094 110.496094 278.746094 107.867188 278.605469 106.847656 C 278.464844 105.828125 278.097656 103.296875 277.785156 101.21875 C 277.472656 99.144531 277.09375 96.515625 276.941406 95.382812 C 276.59375 92.777344 275.6875 86.515625 275.3125 84.117188 C 274.988281 82.058594 274.820312 80.9375 274.398438 77.988281 C 274.238281 76.863281 274.03125 75.433594 273.941406 74.8125 C 273.851562 74.195312 273.6875 73.042969 273.574219 72.25 C 273.003906 68.121094 272.550781 64.980469 272.058594 61.695312 C 271.949219 60.964844 271.824219 60.089844 271.777344 59.75 C 271.734375 59.410156 271.402344 57.105469 271.039062 54.628906 C 270.679688 52.152344 270.097656 48.082031 269.75 45.585938 C 269.308594 42.402344 269.0625 41 268.632812 40.390625 Z M 278.585938 119.910156 C 278.644531 119.996094 278.695312 120.316406 278.699219 120.621094 C 278.699219 120.929688 278.65625 121.113281 278.597656 121.027344 C 278.542969 120.941406 278.492188 120.621094 278.488281 120.316406 C 278.484375 120.007812 278.527344 119.828125 278.585938 119.910156 Z M 278.808594 121.546875 C 278.820312 121.5625 278.832031 121.59375 278.847656 121.644531 C 279.050781 122.308594 279.3125 124.703125 279.195312 124.785156 C 279.136719 124.824219 279.085938 124.832031 279.082031 124.804688 C 278.863281 123.941406 278.660156 121.335938 278.808594 121.546875 Z M 280.238281 128.238281 C 280.417969 128.511719 280.652344 129.652344 280.585938 130.136719 C 280.542969 130.476562 280.457031 130.683594 280.398438 130.601562 C 280.265625 130.410156 280.039062 128.257812 280.144531 128.1875 C 280.171875 128.167969 280.207031 128.1875 280.238281 128.238281 Z M 283.9375 148.101562 C 283.878906 148.019531 283.75 148.003906 283.652344 148.070312 C 283.554688 148.136719 283.523438 148.261719 283.578125 148.347656 C 283.636719 148.429688 283.765625 148.445312 283.863281 148.378906 C 283.960938 148.3125 283.996094 148.1875 283.9375 148.101562 Z M 283.386719 147.332031 C 283.335938 147.253906 283.175781 147.214844 282.90625 147.210938 C 281.765625 147.183594 277.757812 148.019531 275.789062 148.695312 L 274.265625 149.214844 L 274.019531 150.039062 C 273.882812 150.492188 273.808594 150.917969 273.855469 150.984375 C 273.902344 151.050781 274.0625 152.257812 274.214844 153.667969 C 274.566406 156.976562 274.785156 157.941406 275.617188 159.902344 C 276.25 161.394531 276.480469 162.5625 276.796875 165.90625 C 276.941406 167.457031 277.261719 167.714844 278.738281 167.46875 C 279.414062 167.351562 280.011719 167.320312 280.058594 167.390625 C 280.109375 167.464844 280.207031 167.957031 280.28125 168.492188 C 280.429688 169.578125 280.792969 169.820312 281.523438 169.320312 C 281.847656 169.101562 281.914062 168.824219 281.828125 168.101562 C 281.699219 167.058594 281.867188 166.867188 283.320312 166.410156 C 284.59375 166.011719 284.640625 165.941406 283.703125 165.835938 L 282.882812 165.746094 L 282.589844 163.054688 C 282.398438 161.320312 282.386719 159.800781 282.554688 158.792969 C 282.734375 157.738281 282.71875 156.90625 282.515625 156.234375 C 282.15625 155.058594 281.96875 153.117188 282.140625 152.359375 C 282.207031 152.066406 282.226562 151.140625 282.1875 150.300781 C 282.105469 148.5625 282.148438 148.429688 282.9375 147.886719 C 283.316406 147.625 283.464844 147.441406 283.386719 147.332031 Z M 238.78125 119.496094 C 238.898438 119.667969 238.066406 124.234375 237.894531 124.351562 C 237.8125 124.40625 237.082031 124.398438 236.269531 124.332031 C 234.871094 124.214844 234.824219 124.195312 235.398438 123.945312 C 235.730469 123.800781 236.195312 123.621094 236.425781 123.550781 C 237.078125 123.347656 237.902344 122.414062 238.109375 121.640625 C 238.3125 120.894531 237.90625 120.023438 237.109375 119.488281 C 236.722656 119.230469 236.765625 119.214844 237.699219 119.296875 C 238.253906 119.347656 238.742188 119.4375 238.78125 119.496094 Z M 234.351562 119.117188 C 234.425781 119.21875 234.140625 119.371094 233.605469 119.675781 C 233.058594 119.988281 232.59375 120.242188 232.570312 120.246094 C 232.355469 120.253906 231.828125 119.503906 231.804688 119.160156 C 231.78125 118.738281 231.8125 118.726562 232.664062 118.828125 C 233.761719 118.953125 234.273438 119.003906 234.351562 119.117188 Z M 234.132812 124.09375 L 233.207031 124.035156 C 232.695312 124.003906 230.882812 123.835938 229.183594 123.664062 C 227.484375 123.492188 225.5625 123.316406 224.921875 123.269531 C 224.277344 123.21875 223.707031 123.121094 223.65625 123.050781 C 223.609375 122.976562 223.382812 122.988281 223.15625 123.078125 C 222.492188 123.34375 222.484375 123.242188 223.027344 120.460938 C 223.160156 119.773438 223.320312 118.925781 223.378906 118.582031 L 223.492188 117.953125 L 225.824219 118.171875 C 227.109375 118.289062 228.140625 118.457031 228.117188 118.539062 C 228.097656 118.625 227.632812 118.636719 227.085938 118.566406 C 226.542969 118.5 226.003906 118.503906 225.890625 118.582031 C 225.777344 118.660156 225.617188 118.621094 225.535156 118.5 C 225.117188 117.890625 223.789062 119.347656 223.449219 120.789062 C 223.273438 121.527344 223.671875 122.066406 224.328125 121.984375 C 224.570312 121.957031 226.179688 122.066406 227.898438 122.230469 C 229.621094 122.394531 231.253906 122.46875 231.527344 122.394531 C 231.929688 122.289062 232.109375 122.386719 232.453125 122.890625 C 232.6875 123.234375 233.160156 123.644531 233.507812 123.804688 Z M 232.023438 121.257812 C 232.027344 121.261719 232.03125 121.265625 232.03125 121.269531 C 232.066406 121.324219 232.070312 121.402344 232.03125 121.472656 C 231.972656 121.585938 231.832031 121.644531 231.71875 121.601562 C 231.609375 121.5625 231.566406 121.4375 231.625 121.324219 C 231.683594 121.210938 231.824219 121.152344 231.9375 121.191406 C 231.972656 121.207031 232.003906 121.226562 232.023438 121.257812 Z M 229.691406 118.601562 C 229.699219 118.613281 229.703125 118.628906 229.699219 118.644531 C 229.675781 118.730469 229.5 118.78125 229.304688 118.757812 C 229.027344 118.726562 229.035156 118.695312 229.347656 118.601562 C 229.523438 118.550781 229.660156 118.554688 229.691406 118.601562 Z M 150.953125 123.183594 C 151.039062 123.308594 151.035156 123.464844 150.941406 123.527344 C 150.714844 123.683594 150.390625 123.550781 150.449219 123.332031 C 150.53125 123.023438 150.789062 122.945312 150.953125 123.183594 Z M 149.925781 123.214844 C 150.109375 123.480469 150.027344 123.550781 149.421875 123.65625 C 149.015625 123.722656 148.511719 123.382812 148.761719 123.210938 C 149.050781 123.015625 149.792969 123.019531 149.925781 123.214844 Z M 149.925781 123.214844 " fill-opacity="1" fill-rule="nonzero"/></g></g></g><g clip-path="url(#078650c6d1)"><path fill="#ffffff" d="M 283.5 172.53125 C 289.21875 172.472656 301.167969 171.148438 317.460938 171.148438 C 301.167969 171.148438 289.21875 169.820312 283.5 169.765625 C 291.101562 165.929688 309.457031 154.117188 344.917969 133.644531 C 309.457031 154.113281 290.050781 164.113281 282.929688 168.777344 C 285.738281 163.792969 290.566406 152.78125 298.710938 138.671875 C 290.566406 152.78125 283.441406 162.46875 280.527344 167.394531 C 281.003906 158.890625 279.957031 137.089844 279.957031 96.144531 C 279.957031 137.089844 278.910156 158.890625 279.386719 167.394531 C 276.476562 162.46875 269.347656 152.78125 261.203125 138.671875 C 269.347656 152.78125 274.175781 163.796875 276.984375 168.777344 C 269.855469 164.113281 250.457031 154.117188 214.996094 133.644531 C 250.457031 154.113281 268.8125 165.921875 276.414062 169.765625 C 270.695312 169.824219 258.746094 171.148438 242.453125 171.148438 C 258.746094 171.148438 270.695312 172.476562 276.414062 172.53125 C 268.8125 176.371094 250.457031 188.179688 214.996094 208.648438 C 250.457031 188.179688 269.863281 178.179688 276.984375 173.515625 C 274.175781 178.5 269.347656 189.511719 261.203125 203.621094 C 269.347656 189.511719 276.472656 179.824219 279.386719 174.898438 C 278.910156 183.402344 279.957031 205.203125 279.957031 246.148438 C 279.957031 205.203125 281.003906 183.402344 280.527344 174.898438 C 283.4375 179.824219 290.566406 189.511719 298.710938 203.621094 C 290.566406 189.511719 285.738281 178.496094 282.929688 173.515625 C 290.058594 178.179688 309.457031 188.175781 344.917969 208.648438 C 309.457031 188.183594 291.101562 176.375 283.5 172.53125 Z M 283.5 172.53125 " fill-opacity="1" fill-rule="nonzero"/></g><g transform="matrix(1, 0, 0, 1, 223, 169)"><g clip-path="url(#53d6cb3217)"><g fill="#ff3131" fill-opacity="1"><g transform="translate(1.169727, 116.119837)"><g><path d="M 57.796875 1.828125 C 51.285156 1.828125 45.03125 0.710938 39.03125 -1.515625 C 33.039062 -3.753906 27.679688 -7.132812 22.953125 -11.65625 C 18.222656 -16.1875 14.484375 -21.882812 11.734375 -28.75 C 8.992188 -35.613281 7.625 -43.71875 7.625 -53.0625 C 7.625 -65.875 10.085938 -76.726562 15.015625 -85.625 C 19.953125 -94.519531 26.535156 -101.28125 34.765625 -105.90625 C 43.003906 -110.53125 52.15625 -112.84375 62.21875 -112.84375 C 67 -112.84375 70.988281 -112.460938 74.1875 -111.703125 C 77.394531 -110.941406 80.140625 -110.050781 82.421875 -109.03125 C 84.710938 -108.019531 86.796875 -107.128906 88.671875 -106.359375 C 90.554688 -105.597656 92.460938 -105.21875 94.390625 -105.21875 C 96.429688 -105.21875 97.929688 -105.773438 98.890625 -106.890625 C 99.859375 -108.015625 100.34375 -109.441406 100.34375 -111.171875 L 102.328125 -111.171875 L 104.609375 -77.015625 L 102.78125 -77.015625 C 100.445312 -86.972656 95.898438 -94.820312 89.140625 -100.5625 C 82.378906 -106.3125 73.863281 -109.1875 63.59375 -109.1875 C 51.289062 -109.1875 41.9375 -104.992188 35.53125 -96.609375 C 29.125 -88.222656 25.921875 -76.40625 25.921875 -61.15625 C 25.921875 -55.257812 26.679688 -49.03125 28.203125 -42.46875 C 29.734375 -35.914062 32.097656 -29.816406 35.296875 -24.171875 C 38.503906 -18.523438 42.695312 -13.921875 47.875 -10.359375 C 53.0625 -6.804688 59.316406 -5.03125 66.640625 -5.03125 C 75.585938 -5.03125 81.6875 -7.140625 84.9375 -11.359375 C 88.195312 -15.578125 89.828125 -21.753906 89.828125 -29.890625 L 89.828125 -49.71875 C 89.828125 -52.664062 88.988281 -54.570312 87.3125 -55.4375 C 85.632812 -56.300781 82.40625 -56.734375 77.625 -56.734375 L 77.625 -58.71875 L 117.265625 -58.71875 L 117.265625 -56.734375 C 114.421875 -56.734375 111.929688 -56.300781 109.796875 -55.4375 C 107.660156 -54.570312 106.59375 -52.664062 106.59375 -49.71875 L 106.75 0 L 104.609375 0 C 104.609375 -5.695312 104.226562 -9.660156 103.46875 -11.890625 C 102.707031 -14.128906 101.003906 -15.25 98.359375 -15.25 C 96.734375 -15.25 95.109375 -14.738281 93.484375 -13.71875 C 91.859375 -12.707031 89.617188 -10.929688 86.765625 -8.390625 C 81.992188 -4.222656 77.394531 -1.476562 72.96875 -0.15625 C 68.550781 1.164062 63.492188 1.828125 57.796875 1.828125 Z M 57.796875 1.828125 "/></g></g></g></g></g><g transform="matrix(1, 0, 0, 1, 155, 169)"><g clip-path="url(#8567ad6da7)"><g fill="#ffffff" fill-opacity="1"><g transform="translate(1.058923, 114.33723)"><g><path d="M 4.515625 -107.6875 L 4.515625 -109.640625 L 47.234375 -109.640625 C 52.847656 -109.640625 58.335938 -109.363281 63.703125 -108.8125 C 69.066406 -108.257812 73.953125 -107.082031 78.359375 -105.28125 C 82.773438 -103.476562 86.285156 -100.796875 88.890625 -97.234375 C 91.492188 -93.671875 92.796875 -88.882812 92.796875 -82.875 C 92.796875 -76.957031 91.566406 -72.191406 89.109375 -68.578125 C 86.660156 -64.972656 83.453125 -62.21875 79.484375 -60.3125 C 75.523438 -58.40625 71.238281 -57.125 66.625 -56.46875 C 62.019531 -55.820312 57.507812 -55.5 53.09375 -55.5 L 31.4375 -55.5 L 31.4375 -10.078125 C 31.4375 -6.671875 32.285156 -4.460938 33.984375 -3.453125 C 35.691406 -2.453125 38.300781 -1.953125 41.8125 -1.953125 L 41.8125 0 L 4.515625 0 L 4.515625 -1.953125 C 8.023438 -1.953125 10.628906 -2.453125 12.328125 -3.453125 C 14.035156 -4.460938 14.890625 -6.671875 14.890625 -10.078125 L 14.890625 -99.5625 C 14.890625 -103.070312 14.035156 -105.300781 12.328125 -106.25 C 10.628906 -107.207031 8.023438 -107.6875 4.515625 -107.6875 Z M 47.234375 -107.6875 L 31.4375 -107.6875 L 31.4375 -57.453125 L 47.53125 -57.453125 C 54.144531 -57.453125 59.554688 -58.128906 63.765625 -59.484375 C 67.984375 -60.835938 71.117188 -63.242188 73.171875 -66.703125 C 75.222656 -70.160156 76.25 -74.945312 76.25 -81.0625 C 76.25 -98.8125 66.578125 -107.6875 47.234375 -107.6875 Z M 47.234375 -107.6875 "/></g></g></g></g></g><g transform="matrix(1, 0, 0, 1, 25, 169)"><g clip-path="url(#0609d7edd6)"><g clip-path="url(#9c44ba3e48)"><g fill="#ffffff" fill-opacity="1"><g transform="translate(0.307242, 116.119837)"><g><path d="M 0 -111.171875 L 42.25 -111.171875 L 42.25 -109.34375 C 37.164062 -109.34375 33.734375 -108.882812 31.953125 -107.96875 C 30.171875 -107.050781 30.09375 -104.863281 31.71875 -101.40625 L 70.609375 -21.046875 L 83.875 -59.015625 L 63.890625 -100.1875 C 62.265625 -103.75 60.613281 -106.140625 58.9375 -107.359375 C 57.257812 -108.578125 54.335938 -109.1875 50.171875 -109.1875 L 50.171875 -111.171875 L 114.375 -111.171875 L 114.375 -109.1875 C 110.101562 -109.1875 107.023438 -108.578125 105.140625 -107.359375 C 103.265625 -106.140625 101.664062 -103.703125 100.34375 -100.046875 L 92.875 -78.84375 L 120.78125 -21.046875 L 148.53125 -100.1875 C 149.65625 -103.445312 149.65625 -105.757812 148.53125 -107.125 C 147.414062 -108.5 144.46875 -109.1875 139.6875 -109.1875 L 139.6875 -111.171875 L 164.703125 -111.171875 L 164.703125 -109.1875 C 160.328125 -109.1875 157.195312 -108.578125 155.3125 -107.359375 C 153.4375 -106.140625 151.835938 -103.703125 150.515625 -100.046875 L 115.59375 0 L 112.390625 0 L 85.09375 -56.421875 L 65.265625 0 L 62.0625 0 L 13.71875 -100.1875 C 12.601562 -102.632812 11.507812 -104.492188 10.4375 -105.765625 C 9.375 -107.035156 8.054688 -107.921875 6.484375 -108.421875 C 4.910156 -108.929688 2.75 -109.1875 0 -109.1875 Z M 91.65625 -81.28125 L 98.359375 -100.1875 C 99.484375 -103.445312 99.484375 -105.757812 98.359375 -107.125 C 97.242188 -108.5 94.296875 -109.1875 89.515625 -109.1875 C 85.546875 -109.082031 82.925781 -108.519531 81.65625 -107.5 C 80.382812 -106.488281 80.515625 -104.457031 82.046875 -101.40625 Z M 91.65625 -81.28125 "/></g></g></g></g></g></g><g fill="#ff3131" fill-opacity="1"><g transform="translate(34.738335, 327.000975)"><g><path d="M 8.921875 -14.546875 C 8.554688 -15.492188 8.21875 -16.140625 7.90625 -16.484375 C 7.601562 -16.828125 7.3125 -17.054688 7.03125 -17.171875 L 7.03125 -17.5 L 10.84375 -17.5 L 10.84375 -17.171875 C 10.476562 -17.054688 10.328125 -16.828125 10.390625 -16.484375 C 10.460938 -16.140625 10.691406 -15.503906 11.078125 -14.578125 L 12.421875 -11.28125 L 13.625 -14.53125 C 13.9375 -15.363281 14.066406 -15.988281 14.015625 -16.40625 C 13.972656 -16.832031 13.742188 -17.085938 13.328125 -17.171875 L 13.328125 -17.5 L 16.078125 -17.5 L 16.078125 -17.171875 C 15.722656 -17.054688 15.382812 -16.820312 15.0625 -16.46875 C 14.75 -16.125 14.421875 -15.476562 14.078125 -14.53125 L 12.671875 -10.703125 L 16.046875 -2.53125 L 20.40625 -14.53125 C 20.988281 -16.113281 20.851562 -16.992188 20 -17.171875 L 20 -17.5 L 22.828125 -17.5 L 22.828125 -17.171875 C 22.472656 -17.054688 22.132812 -16.820312 21.8125 -16.46875 C 21.5 -16.125 21.171875 -15.476562 20.828125 -14.53125 L 15.59375 0 L 14.90625 0 L 11.421875 -8.46875 L 7.96875 0 L 7.28125 0 L 1.75 -14.53125 C 1.382812 -15.488281 1.054688 -16.140625 0.765625 -16.484375 C 0.472656 -16.828125 0.1875 -17.054688 -0.09375 -17.171875 L -0.09375 -17.5 L 3.78125 -17.5 L 3.78125 -17.171875 C 3.394531 -17.054688 3.222656 -16.828125 3.265625 -16.484375 C 3.316406 -16.140625 3.53125 -15.488281 3.90625 -14.53125 L 8.53125 -2.46875 L 11.203125 -9.03125 Z M 8.921875 -14.546875 "/></g></g></g><g fill="#ffffff" fill-opacity="1"><g transform="translate(58.621146, 327.000975)"><g><path d="M 1.28125 0 L 1.28125 -0.328125 C 1.65625 -0.441406 1.914062 -0.691406 2.0625 -1.078125 C 2.207031 -1.460938 2.28125 -2.160156 2.28125 -3.171875 L 2.28125 -14.328125 C 2.28125 -15.359375 2.207031 -16.0625 2.0625 -16.4375 C 1.914062 -16.8125 1.65625 -17.054688 1.28125 -17.171875 L 1.28125 -17.5 L 12.90625 -17.5 L 13.171875 -14.25 L 12.90625 -14.171875 C 12.46875 -15.273438 11.859375 -16.039062 11.078125 -16.46875 C 10.304688 -16.90625 9.28125 -17.125 8 -17.125 L 4.328125 -17.125 L 4.328125 -9.546875 L 7.53125 -9.546875 C 8.476562 -9.546875 9.210938 -9.609375 9.734375 -9.734375 C 10.265625 -9.859375 10.648438 -10.050781 10.890625 -10.3125 C 11.128906 -10.570312 11.300781 -10.882812 11.40625 -11.25 L 11.703125 -11.25 L 11.703125 -7.46875 L 11.40625 -7.46875 C 11.300781 -7.851562 11.128906 -8.171875 10.890625 -8.421875 C 10.648438 -8.671875 10.265625 -8.859375 9.734375 -8.984375 C 9.210938 -9.109375 8.476562 -9.171875 7.53125 -9.171875 L 4.328125 -9.171875 L 4.328125 -1.5 C 4.328125 -0.75 4.703125 -0.375 5.453125 -0.375 L 8.703125 -0.375 C 9.898438 -0.375 10.890625 -0.582031 11.671875 -1 C 12.453125 -1.414062 13.070312 -2.207031 13.53125 -3.375 L 13.796875 -3.328125 L 13.59375 0 Z M 1.28125 0 "/></g></g></g><g fill="#ffffff" fill-opacity="1"><g transform="translate(74.54379, 327.000975)"><g><path d="M 1.28125 0 L 1.28125 -0.328125 C 1.65625 -0.441406 1.914062 -0.691406 2.0625 -1.078125 C 2.207031 -1.460938 2.28125 -2.160156 2.28125 -3.171875 L 2.28125 -14.328125 C 2.28125 -15.359375 2.207031 -16.0625 2.0625 -16.4375 C 1.914062 -16.8125 1.65625 -17.054688 1.28125 -17.171875 L 1.28125 -17.5 L 5.328125 -17.5 L 5.328125 -17.171875 C 4.941406 -17.054688 4.675781 -16.8125 4.53125 -16.4375 C 4.394531 -16.0625 4.328125 -15.359375 4.328125 -14.328125 L 4.328125 -1.53125 C 4.328125 -0.78125 4.703125 -0.40625 5.453125 -0.40625 L 8.421875 -0.40625 C 9.617188 -0.40625 10.539062 -0.582031 11.1875 -0.9375 C 11.832031 -1.289062 12.367188 -1.9375 12.796875 -2.875 L 13.078125 -2.828125 L 12.90625 0 Z M 1.28125 0 "/></g></g></g><g fill="#ffffff" fill-opacity="1"><g transform="translate(89.316624, 327.000975)"><g><path d="M 1.28125 0 L 1.28125 -0.328125 C 1.65625 -0.441406 1.914062 -0.691406 2.0625 -1.078125 C 2.207031 -1.460938 2.28125 -2.160156 2.28125 -3.171875 L 2.28125 -14.328125 C 2.28125 -15.359375 2.207031 -16.0625 2.0625 -16.4375 C 1.914062 -16.8125 1.65625 -17.054688 1.28125 -17.171875 L 1.28125 -17.5 L 7.25 -17.5 C 8.96875 -17.5 10.429688 -17.253906 11.640625 -16.765625 C 12.859375 -16.273438 13.851562 -15.617188 14.625 -14.796875 C 15.394531 -13.984375 15.957031 -13.078125 16.3125 -12.078125 C 16.664062 -11.085938 16.84375 -10.085938 16.84375 -9.078125 C 16.863281 -7.328125 16.503906 -5.765625 15.765625 -4.390625 C 15.023438 -3.023438 13.972656 -1.953125 12.609375 -1.171875 C 11.253906 -0.390625 9.660156 0 7.828125 0 Z M 4.328125 -2.203125 C 4.328125 -1.617188 4.425781 -1.164062 4.625 -0.84375 C 4.820312 -0.53125 5.265625 -0.375 5.953125 -0.375 L 7.78125 -0.375 C 9.957031 -0.375 11.632812 -1.003906 12.8125 -2.265625 C 13.988281 -3.523438 14.578125 -5.460938 14.578125 -8.078125 C 14.578125 -9.742188 14.25 -11.257812 13.59375 -12.625 C 12.945312 -13.988281 11.988281 -15.078125 10.71875 -15.890625 C 9.457031 -16.710938 7.894531 -17.125 6.03125 -17.125 L 4.328125 -17.125 Z M 4.328125 -2.203125 "/></g></g></g><g fill="#ffffff" fill-opacity="1"><g transform="translate(108.638735, 327.000975)"><g><path d="M 1.28125 0 L 1.28125 -0.328125 C 1.65625 -0.441406 1.914062 -0.691406 2.0625 -1.078125 C 2.207031 -1.460938 2.28125 -2.160156 2.28125 -3.171875 L 2.28125 -14.328125 C 2.28125 -15.359375 2.207031 -16.0625 2.0625 -16.4375 C 1.914062 -16.8125 1.65625 -17.054688 1.28125 -17.171875 L 1.28125 -17.5 L 12.90625 -17.5 L 13.171875 -14.25 L 12.90625 -14.171875 C 12.46875 -15.273438 11.859375 -16.039062 11.078125 -16.46875 C 10.304688 -16.90625 9.28125 -17.125 8 -17.125 L 4.328125 -17.125 L 4.328125 -9.546875 L 7.53125 -9.546875 C 8.476562 -9.546875 9.210938 -9.609375 9.734375 -9.734375 C 10.265625 -9.859375 10.648438 -10.050781 10.890625 -10.3125 C 11.128906 -10.570312 11.300781 -10.882812 11.40625 -11.25 L 11.703125 -11.25 L 11.703125 -7.46875 L 11.40625 -7.46875 C 11.300781 -7.851562 11.128906 -8.171875 10.890625 -8.421875 C 10.648438 -8.671875 10.265625 -8.859375 9.734375 -8.984375 C 9.210938 -9.109375 8.476562 -9.171875 7.53125 -9.171875 L 4.328125 -9.171875 L 4.328125 -1.5 C 4.328125 -0.75 4.703125 -0.375 5.453125 -0.375 L 8.703125 -0.375 C 9.898438 -0.375 10.890625 -0.582031 11.671875 -1 C 12.453125 -1.414062 13.070312 -2.207031 13.53125 -3.375 L 13.796875 -3.328125 L 13.59375 0 Z M 1.28125 0 "/></g></g></g><g fill="#ffffff" fill-opacity="1"><g transform="translate(124.56138, 327.000975)"><g><path d="M 14 0.171875 C 13.363281 0.171875 12.863281 0.0195312 12.5 -0.28125 C 12.132812 -0.59375 11.8125 -1.046875 11.53125 -1.640625 C 11.257812 -2.234375 10.941406 -2.960938 10.578125 -3.828125 C 10.210938 -4.691406 9.90625 -5.445312 9.65625 -6.09375 C 9.40625 -6.75 9.132812 -7.289062 8.84375 -7.71875 C 8.550781 -8.15625 8.175781 -8.484375 7.71875 -8.703125 C 7.269531 -8.921875 6.671875 -9.03125 5.921875 -9.03125 L 4.328125 -9.03125 L 4.328125 -3.171875 C 4.328125 -2.160156 4.394531 -1.460938 4.53125 -1.078125 C 4.675781 -0.691406 4.941406 -0.441406 5.328125 -0.328125 L 5.328125 0 L 1.28125 0 L 1.28125 -0.328125 C 1.65625 -0.441406 1.914062 -0.691406 2.0625 -1.078125 C 2.207031 -1.460938 2.28125 -2.160156 2.28125 -3.171875 L 2.28125 -14.328125 C 2.28125 -15.359375 2.207031 -16.0625 2.0625 -16.4375 C 1.914062 -16.8125 1.65625 -17.054688 1.28125 -17.171875 L 1.28125 -17.5 L 6.203125 -17.5 C 7.898438 -17.5 9.222656 -17.328125 10.171875 -16.984375 C 11.117188 -16.640625 11.789062 -16.175781 12.1875 -15.59375 C 12.582031 -15.007812 12.78125 -14.34375 12.78125 -13.59375 C 12.78125 -12.425781 12.363281 -11.429688 11.53125 -10.609375 C 10.695312 -9.785156 9.460938 -9.28125 7.828125 -9.09375 C 8.585938 -9 9.207031 -8.828125 9.6875 -8.578125 C 10.175781 -8.335938 10.578125 -8.015625 10.890625 -7.609375 C 11.210938 -7.203125 11.5 -6.707031 11.75 -6.125 C 12 -5.539062 12.273438 -4.863281 12.578125 -4.09375 C 12.972656 -3.09375 13.304688 -2.316406 13.578125 -1.765625 C 13.859375 -1.222656 14.113281 -0.835938 14.34375 -0.609375 C 14.582031 -0.390625 14.84375 -0.28125 15.125 -0.28125 C 15.207031 -0.28125 15.273438 -0.28125 15.328125 -0.28125 C 15.390625 -0.28125 15.457031 -0.285156 15.53125 -0.296875 L 15.53125 0 C 15.34375 0.0625 15.101562 0.101562 14.8125 0.125 C 14.519531 0.15625 14.25 0.171875 14 0.171875 Z M 4.328125 -9.40625 L 6.421875 -9.40625 C 7.859375 -9.40625 8.921875 -9.738281 9.609375 -10.40625 C 10.304688 -11.082031 10.65625 -11.957031 10.65625 -13.03125 C 10.65625 -13.78125 10.484375 -14.460938 10.140625 -15.078125 C 9.796875 -15.691406 9.242188 -16.1875 8.484375 -16.5625 C 7.722656 -16.9375 6.726562 -17.125 5.5 -17.125 C 5.3125 -17.125 5.117188 -17.117188 4.921875 -17.109375 C 4.722656 -17.097656 4.523438 -17.085938 4.328125 -17.078125 Z M 4.328125 -9.40625 "/></g></g></g><g fill="#ffffff" fill-opacity="1"><g transform="translate(141.058941, 327.000975)"><g><path d="M 6.03125 -19.15625 L 6.03125 -18.90625 C 5.8125 -18.601562 5.492188 -18.210938 5.078125 -17.734375 C 4.671875 -17.265625 4.226562 -16.789062 3.75 -16.3125 C 3.28125 -15.832031 2.847656 -15.445312 2.453125 -15.15625 L 1 -15.15625 L 1 -15.453125 C 1.226562 -15.753906 1.492188 -16.125 1.796875 -16.5625 C 2.097656 -17 2.390625 -17.445312 2.671875 -17.90625 C 2.953125 -18.363281 3.1875 -18.78125 3.375 -19.15625 Z M 6.03125 -19.15625 "/></g></g></g><g fill="#ffffff" fill-opacity="1"><g transform="translate(149.282815, 327.000975)"><g><path d="M 7.125 0.25 C 5.8125 0.25 4.628906 0.0546875 3.578125 -0.328125 C 2.523438 -0.710938 1.707031 -1.113281 1.125 -1.53125 L 1 -5 L 1.28125 -5.046875 C 1.613281 -4.179688 2.050781 -3.378906 2.59375 -2.640625 C 3.132812 -1.898438 3.820312 -1.304688 4.65625 -0.859375 C 5.488281 -0.421875 6.476562 -0.203125 7.625 -0.203125 C 8.289062 -0.203125 8.90625 -0.335938 9.46875 -0.609375 C 10.039062 -0.890625 10.492188 -1.28125 10.828125 -1.78125 C 11.171875 -2.28125 11.34375 -2.863281 11.34375 -3.53125 C 11.34375 -4.15625 11.175781 -4.703125 10.84375 -5.171875 C 10.507812 -5.640625 10.078125 -6.046875 9.546875 -6.390625 C 9.015625 -6.742188 8.453125 -7.050781 7.859375 -7.3125 C 7.265625 -7.570312 6.703125 -7.8125 6.171875 -8.03125 C 5.191406 -8.425781 4.335938 -8.828125 3.609375 -9.234375 C 2.890625 -9.640625 2.332031 -10.128906 1.9375 -10.703125 C 1.539062 -11.285156 1.34375 -12.019531 1.34375 -12.90625 C 1.34375 -13.882812 1.597656 -14.726562 2.109375 -15.4375 C 2.617188 -16.144531 3.332031 -16.691406 4.25 -17.078125 C 5.164062 -17.472656 6.234375 -17.671875 7.453125 -17.671875 C 8.585938 -17.671875 9.5625 -17.546875 10.375 -17.296875 C 11.1875 -17.046875 11.835938 -16.789062 12.328125 -16.53125 L 12.421875 -13.625 L 12.171875 -13.546875 C 11.703125 -14.628906 11.019531 -15.519531 10.125 -16.21875 C 9.238281 -16.925781 8.082031 -17.28125 6.65625 -17.28125 C 5.988281 -17.28125 5.363281 -17.148438 4.78125 -16.890625 C 4.207031 -16.628906 3.75 -16.253906 3.40625 -15.765625 C 3.070312 -15.285156 2.90625 -14.6875 2.90625 -13.96875 C 2.90625 -13.382812 3.046875 -12.875 3.328125 -12.4375 C 3.609375 -12.007812 3.984375 -11.632812 4.453125 -11.3125 C 4.921875 -11 5.425781 -10.722656 5.96875 -10.484375 C 6.519531 -10.242188 7.0625 -10.015625 7.59375 -9.796875 C 8.53125 -9.429688 9.40625 -9.039062 10.21875 -8.625 C 11.039062 -8.207031 11.703125 -7.695312 12.203125 -7.09375 C 12.710938 -6.5 12.96875 -5.726562 12.96875 -4.78125 C 12.96875 -3.738281 12.6875 -2.835938 12.125 -2.078125 C 11.5625 -1.328125 10.832031 -0.75 9.9375 -0.34375 C 9.039062 0.0507812 8.101562 0.25 7.125 0.25 Z M 7.125 0.25 "/></g></g></g><g fill="#ff3131" fill-opacity="1"><g transform="translate(170.722705, 327.000975)"><g><path d="M 1.28125 0 L 1.28125 -0.328125 C 1.65625 -0.441406 1.914062 -0.691406 2.0625 -1.078125 C 2.207031 -1.460938 2.28125 -2.160156 2.28125 -3.171875 L 2.28125 -14.328125 C 2.28125 -15.359375 2.207031 -16.0625 2.0625 -16.4375 C 1.914062 -16.8125 1.65625 -17.054688 1.28125 -17.171875 L 1.28125 -17.5 L 6.34375 -17.5 C 8.082031 -17.5 9.445312 -17.253906 10.4375 -16.765625 C 11.425781 -16.285156 12.128906 -15.671875 12.546875 -14.921875 C 12.960938 -14.171875 13.171875 -13.390625 13.171875 -12.578125 C 13.171875 -10.910156 12.570312 -9.550781 11.375 -8.5 C 10.1875 -7.445312 8.425781 -6.921875 6.09375 -6.921875 L 4.328125 -6.921875 L 4.328125 -3.171875 C 4.328125 -2.160156 4.394531 -1.460938 4.53125 -1.078125 C 4.675781 -0.691406 4.941406 -0.441406 5.328125 -0.328125 L 5.328125 0 Z M 4.328125 -7.296875 L 6.046875 -7.296875 C 7.648438 -7.296875 8.867188 -7.710938 9.703125 -8.546875 C 10.546875 -9.378906 10.96875 -10.53125 10.96875 -12 C 10.96875 -12.894531 10.78125 -13.726562 10.40625 -14.5 C 10.03125 -15.28125 9.4375 -15.910156 8.625 -16.390625 C 7.8125 -16.878906 6.726562 -17.125 5.375 -17.125 C 5.207031 -17.125 5.023438 -17.117188 4.828125 -17.109375 C 4.640625 -17.097656 4.472656 -17.085938 4.328125 -17.078125 Z M 4.328125 -7.296875 "/></g></g></g><g fill="#ffffff" fill-opacity="1"><g transform="translate(185.722704, 327.000975)"><g><path d="M 1.28125 0 L 1.28125 -0.328125 C 1.65625 -0.441406 1.914062 -0.691406 2.0625 -1.078125 C 2.207031 -1.460938 2.28125 -2.160156 2.28125 -3.171875 L 2.28125 -14.328125 C 2.28125 -15.359375 2.207031 -16.0625 2.0625 -16.4375 C 1.914062 -16.8125 1.65625 -17.054688 1.28125 -17.171875 L 1.28125 -17.5 L 5.328125 -17.5 L 5.328125 -17.171875 C 4.941406 -17.054688 4.675781 -16.8125 4.53125 -16.4375 C 4.394531 -16.0625 4.328125 -15.359375 4.328125 -14.328125 L 4.328125 -1.53125 C 4.328125 -0.78125 4.703125 -0.40625 5.453125 -0.40625 L 8.421875 -0.40625 C 9.617188 -0.40625 10.539062 -0.582031 11.1875 -0.9375 C 11.832031 -1.289062 12.367188 -1.9375 12.796875 -2.875 L 13.078125 -2.828125 L 12.90625 0 Z M 1.28125 0 "/></g></g></g><g fill="#ffffff" fill-opacity="1"><g transform="translate(200.495537, 327.000975)"><g><path d="M -0.421875 0 L -0.421875 -0.328125 C -0.078125 -0.441406 0.257812 -0.671875 0.59375 -1.015625 C 0.925781 -1.359375 1.285156 -2.003906 1.671875 -2.953125 L 6.59375 -15.15625 C 6.75 -15.550781 6.734375 -15.941406 6.546875 -16.328125 L 6.328125 -16.84375 L 8.203125 -17.703125 L 14.34375 -2.921875 C 14.726562 -1.992188 15.070312 -1.359375 15.375 -1.015625 C 15.6875 -0.671875 15.976562 -0.441406 16.25 -0.328125 L 16.25 0 L 12.375 0 L 12.375 -0.328125 C 12.757812 -0.441406 12.914062 -0.671875 12.84375 -1.015625 C 12.78125 -1.359375 12.550781 -1.992188 12.15625 -2.921875 L 10.625 -6.59375 L 3.578125 -6.59375 L 2.09375 -2.953125 C 1.46875 -1.367188 1.570312 -0.492188 2.40625 -0.328125 L 2.40625 0 Z M 3.71875 -6.96875 L 10.46875 -6.96875 L 7.046875 -15.203125 Z M 3.71875 -6.96875 "/></g></g></g><g fill="#ffffff" fill-opacity="1"><g transform="translate(215.968154, 327.000975)"><g><path d="M 4.71875 0 L 4.71875 -0.328125 C 5.101562 -0.441406 5.363281 -0.691406 5.5 -1.078125 C 5.644531 -1.460938 5.710938 -2.160156 5.703125 -3.171875 L 5.703125 -7.875 L 1.921875 -14.71875 C 1.441406 -15.601562 1.015625 -16.203125 0.640625 -16.515625 C 0.273438 -16.835938 -0.0351562 -17.054688 -0.296875 -17.171875 L -0.296875 -17.5 L 3.65625 -17.5 L 3.65625 -17.171875 C 3.28125 -17.054688 3.148438 -16.835938 3.265625 -16.515625 C 3.390625 -16.203125 3.703125 -15.601562 4.203125 -14.71875 L 7.671875 -8.53125 L 11.171875 -14.71875 C 11.609375 -15.488281 11.828125 -16.066406 11.828125 -16.453125 C 11.828125 -16.847656 11.582031 -17.085938 11.09375 -17.171875 L 11.09375 -17.5 L 14.078125 -17.5 L 14.078125 -17.171875 C 13.742188 -17.054688 13.375 -16.835938 12.96875 -16.515625 C 12.570312 -16.203125 12.125 -15.601562 11.625 -14.71875 L 7.796875 -7.921875 L 7.796875 -3.171875 C 7.796875 -2.160156 7.863281 -1.460938 8 -1.078125 C 8.144531 -0.691406 8.410156 -0.441406 8.796875 -0.328125 L 8.796875 0 Z M 4.71875 0 "/></g></g></g><g fill="#ff3131" fill-opacity="1"><g transform="translate(229.421916, 327.000975)"><g><path d="M 10.5 0.25 C 8.644531 0.25 7.023438 -0.113281 5.640625 -0.84375 C 4.265625 -1.582031 3.195312 -2.613281 2.4375 -3.9375 C 1.675781 -5.257812 1.296875 -6.820312 1.296875 -8.625 C 1.296875 -9.875 1.515625 -11.046875 1.953125 -12.140625 C 2.398438 -13.242188 3.023438 -14.207031 3.828125 -15.03125 C 4.640625 -15.863281 5.601562 -16.507812 6.71875 -16.96875 C 7.84375 -17.4375 9.070312 -17.671875 10.40625 -17.671875 C 11.15625 -17.671875 11.890625 -17.609375 12.609375 -17.484375 C 13.335938 -17.359375 14 -17.195312 14.59375 -17 C 15.195312 -16.800781 15.65625 -16.59375 15.96875 -16.375 L 16.078125 -13.421875 L 15.828125 -13.375 C 15.523438 -14.09375 15.070312 -14.742188 14.46875 -15.328125 C 13.875 -15.910156 13.171875 -16.367188 12.359375 -16.703125 C 11.554688 -17.046875 10.660156 -17.21875 9.671875 -17.21875 C 8.472656 -17.21875 7.398438 -16.945312 6.453125 -16.40625 C 5.503906 -15.863281 4.75 -15.066406 4.1875 -14.015625 C 3.625 -12.972656 3.335938 -11.6875 3.328125 -10.15625 C 3.304688 -8.96875 3.46875 -7.789062 3.8125 -6.625 C 4.164062 -5.457031 4.6875 -4.390625 5.375 -3.421875 C 6.070312 -2.453125 6.910156 -1.679688 7.890625 -1.109375 C 8.878906 -0.535156 10.007812 -0.25 11.28125 -0.25 C 12.207031 -0.25 13.046875 -0.46875 13.796875 -0.90625 C 14.546875 -1.351562 15.082031 -1.882812 15.40625 -2.5 L 15.375 -5.046875 C 15.375 -5.828125 15.296875 -6.394531 15.140625 -6.75 C 14.984375 -7.101562 14.632812 -7.34375 14.09375 -7.46875 L 14.09375 -7.78125 L 17.375 -7.78125 L 17.375 -3.078125 C 16.894531 -2.410156 16.273438 -1.828125 15.515625 -1.328125 C 14.753906 -0.828125 13.941406 -0.4375 13.078125 -0.15625 C 12.210938 0.113281 11.351562 0.25 10.5 0.25 Z M 10.5 0.25 "/></g></g></g><g fill="#ffffff" fill-opacity="1"><g transform="translate(249.179727, 327.000975)"><g><path d="M 14 0.171875 C 13.363281 0.171875 12.863281 0.0195312 12.5 -0.28125 C 12.132812 -0.59375 11.8125 -1.046875 11.53125 -1.640625 C 11.257812 -2.234375 10.941406 -2.960938 10.578125 -3.828125 C 10.210938 -4.691406 9.90625 -5.445312 9.65625 -6.09375 C 9.40625 -6.75 9.132812 -7.289062 8.84375 -7.71875 C 8.550781 -8.15625 8.175781 -8.484375 7.71875 -8.703125 C 7.269531 -8.921875 6.671875 -9.03125 5.921875 -9.03125 L 4.328125 -9.03125 L 4.328125 -3.171875 C 4.328125 -2.160156 4.394531 -1.460938 4.53125 -1.078125 C 4.675781 -0.691406 4.941406 -0.441406 5.328125 -0.328125 L 5.328125 0 L 1.28125 0 L 1.28125 -0.328125 C 1.65625 -0.441406 1.914062 -0.691406 2.0625 -1.078125 C 2.207031 -1.460938 2.28125 -2.160156 2.28125 -3.171875 L 2.28125 -14.328125 C 2.28125 -15.359375 2.207031 -16.0625 2.0625 -16.4375 C 1.914062 -16.8125 1.65625 -17.054688 1.28125 -17.171875 L 1.28125 -17.5 L 6.203125 -17.5 C 7.898438 -17.5 9.222656 -17.328125 10.171875 -16.984375 C 11.117188 -16.640625 11.789062 -16.175781 12.1875 -15.59375 C 12.582031 -15.007812 12.78125 -14.34375 12.78125 -13.59375 C 12.78125 -12.425781 12.363281 -11.429688 11.53125 -10.609375 C 10.695312 -9.785156 9.460938 -9.28125 7.828125 -9.09375 C 8.585938 -9 9.207031 -8.828125 9.6875 -8.578125 C 10.175781 -8.335938 10.578125 -8.015625 10.890625 -7.609375 C 11.210938 -7.203125 11.5 -6.707031 11.75 -6.125 C 12 -5.539062 12.273438 -4.863281 12.578125 -4.09375 C 12.972656 -3.09375 13.304688 -2.316406 13.578125 -1.765625 C 13.859375 -1.222656 14.113281 -0.835938 14.34375 -0.609375 C 14.582031 -0.390625 14.84375 -0.28125 15.125 -0.28125 C 15.207031 -0.28125 15.273438 -0.28125 15.328125 -0.28125 C 15.390625 -0.28125 15.457031 -0.285156 15.53125 -0.296875 L 15.53125 0 C 15.34375 0.0625 15.101562 0.101562 14.8125 0.125 C 14.519531 0.15625 14.25 0.171875 14 0.171875 Z M 4.328125 -9.40625 L 6.421875 -9.40625 C 7.859375 -9.40625 8.921875 -9.738281 9.609375 -10.40625 C 10.304688 -11.082031 10.65625 -11.957031 10.65625 -13.03125 C 10.65625 -13.78125 10.484375 -14.460938 10.140625 -15.078125 C 9.796875 -15.691406 9.242188 -16.1875 8.484375 -16.5625 C 7.722656 -16.9375 6.726562 -17.125 5.5 -17.125 C 5.3125 -17.125 5.117188 -17.117188 4.921875 -17.109375 C 4.722656 -17.097656 4.523438 -17.085938 4.328125 -17.078125 Z M 4.328125 -9.40625 "/></g></g></g><g fill="#ffffff" fill-opacity="1"><g transform="translate(264.42741, 327.000975)"><g><path d="M 10.203125 0.25 C 9.128906 0.25 8.066406 0.0703125 7.015625 -0.28125 C 5.972656 -0.644531 5.015625 -1.195312 4.140625 -1.9375 C 3.273438 -2.675781 2.582031 -3.613281 2.0625 -4.75 C 1.550781 -5.882812 1.296875 -7.226562 1.296875 -8.78125 C 1.296875 -10.488281 1.671875 -12.015625 2.421875 -13.359375 C 3.171875 -14.703125 4.210938 -15.757812 5.546875 -16.53125 C 6.878906 -17.3125 8.429688 -17.703125 10.203125 -17.703125 C 11.253906 -17.703125 12.300781 -17.515625 13.34375 -17.140625 C 14.394531 -16.773438 15.347656 -16.222656 16.203125 -15.484375 C 17.066406 -14.742188 17.753906 -13.804688 18.265625 -12.671875 C 18.785156 -11.535156 19.046875 -10.203125 19.046875 -8.671875 C 19.046875 -7.117188 18.785156 -5.785156 18.265625 -4.671875 C 17.753906 -3.554688 17.066406 -2.628906 16.203125 -1.890625 C 15.335938 -1.160156 14.382812 -0.617188 13.34375 -0.265625 C 12.300781 0.078125 11.253906 0.25 10.203125 0.25 Z M 3.296875 -10.21875 C 3.347656 -8.96875 3.578125 -7.753906 3.984375 -6.578125 C 4.390625 -5.410156 4.945312 -4.359375 5.65625 -3.421875 C 6.363281 -2.492188 7.191406 -1.753906 8.140625 -1.203125 C 9.097656 -0.648438 10.132812 -0.375 11.25 -0.375 C 12.582031 -0.375 13.691406 -0.664062 14.578125 -1.25 C 15.460938 -1.832031 16.113281 -2.628906 16.53125 -3.640625 C 16.957031 -4.648438 17.144531 -5.78125 17.09375 -7.03125 C 17.050781 -8.320312 16.820312 -9.570312 16.40625 -10.78125 C 16 -11.988281 15.445312 -13.066406 14.75 -14.015625 C 14.050781 -14.972656 13.222656 -15.726562 12.265625 -16.28125 C 11.316406 -16.84375 10.285156 -17.125 9.171875 -17.125 C 7.910156 -17.125 6.832031 -16.832031 5.9375 -16.25 C 5.039062 -15.664062 4.363281 -14.859375 3.90625 -13.828125 C 3.445312 -12.796875 3.242188 -11.59375 3.296875 -10.21875 Z M 3.296875 -10.21875 "/></g></g></g><g fill="#ffffff" fill-opacity="1"><g transform="translate(285.949168, 327.000975)"><g><path d="M 9.03125 0.25 C 8.125 0.25 7.25 0.132812 6.40625 -0.09375 C 5.570312 -0.332031 4.820312 -0.707031 4.15625 -1.21875 C 3.488281 -1.738281 2.953125 -2.425781 2.546875 -3.28125 C 2.148438 -4.144531 1.953125 -5.203125 1.953125 -6.453125 L 1.953125 -14.328125 C 1.953125 -15.359375 1.878906 -16.0625 1.734375 -16.4375 C 1.597656 -16.8125 1.335938 -17.054688 0.953125 -17.171875 L 0.953125 -17.5 L 5 -17.5 L 5 -17.171875 C 4.632812 -17.054688 4.375 -16.8125 4.21875 -16.4375 C 4.070312 -16.0625 4 -15.359375 4 -14.328125 L 4 -6.59375 C 4 -5.050781 4.253906 -3.816406 4.765625 -2.890625 C 5.285156 -1.960938 5.988281 -1.296875 6.875 -0.890625 C 7.757812 -0.484375 8.742188 -0.28125 9.828125 -0.28125 C 10.359375 -0.28125 10.914062 -0.378906 11.5 -0.578125 C 12.082031 -0.773438 12.628906 -1.113281 13.140625 -1.59375 C 13.648438 -2.082031 14.0625 -2.734375 14.375 -3.546875 C 14.6875 -4.367188 14.84375 -5.382812 14.84375 -6.59375 L 14.84375 -13.328125 C 14.84375 -14.273438 14.773438 -15.007812 14.640625 -15.53125 C 14.515625 -16.0625 14.328125 -16.441406 14.078125 -16.671875 C 13.828125 -16.910156 13.519531 -17.078125 13.15625 -17.171875 L 13.15625 -17.5 L 16.25 -17.5 L 16.25 -17.171875 C 15.882812 -17.054688 15.625 -16.8125 15.46875 -16.4375 C 15.320312 -16.0625 15.25 -15.359375 15.25 -14.328125 L 15.25 -6.671875 C 15.25 -5.003906 14.96875 -3.660156 14.40625 -2.640625 C 13.851562 -1.628906 13.109375 -0.894531 12.171875 -0.4375 C 11.242188 0.0195312 10.195312 0.25 9.03125 0.25 Z M 9.03125 0.25 "/></g></g></g><g fill="#ffffff" fill-opacity="1"><g transform="translate(304.121458, 327.000975)"><g><path d="M 14.46875 0.203125 L 2.703125 -15.125 L 2.703125 -4.171875 C 2.703125 -3.222656 2.765625 -2.488281 2.890625 -1.96875 C 3.023438 -1.457031 3.222656 -1.078125 3.484375 -0.828125 C 3.742188 -0.585938 4.054688 -0.421875 4.421875 -0.328125 L 4.421875 0 L 1.296875 0 L 1.296875 -0.328125 C 1.679688 -0.441406 1.941406 -0.691406 2.078125 -1.078125 C 2.222656 -1.460938 2.296875 -2.160156 2.296875 -3.171875 L 2.296875 -14.328125 C 2.296875 -15.359375 2.203125 -16.0625 2.015625 -16.4375 C 1.835938 -16.8125 1.5 -17.054688 1 -17.171875 L 1 -17.5 L 3.453125 -17.5 L 14.375 -3.34375 L 14.375 -13.328125 C 14.375 -14.273438 14.304688 -15.007812 14.171875 -15.53125 C 14.035156 -16.0625 13.84375 -16.441406 13.59375 -16.671875 C 13.34375 -16.910156 13.03125 -17.078125 12.65625 -17.171875 L 12.65625 -17.5 L 15.796875 -17.5 L 15.796875 -17.171875 C 15.410156 -17.054688 15.144531 -16.8125 15 -16.4375 C 14.863281 -16.0625 14.796875 -15.359375 14.796875 -14.328125 L 14.796875 0.203125 Z M 14.46875 0.203125 "/></g></g></g><g fill="#ffffff" fill-opacity="1"><g transform="translate(322.118778, 327.000975)"><g><path d="M 1.28125 0 L 1.28125 -0.328125 C 1.65625 -0.441406 1.914062 -0.691406 2.0625 -1.078125 C 2.207031 -1.460938 2.28125 -2.160156 2.28125 -3.171875 L 2.28125 -14.328125 C 2.28125 -15.359375 2.207031 -16.0625 2.0625 -16.4375 C 1.914062 -16.8125 1.65625 -17.054688 1.28125 -17.171875 L 1.28125 -17.5 L 7.25 -17.5 C 8.96875 -17.5 10.429688 -17.253906 11.640625 -16.765625 C 12.859375 -16.273438 13.851562 -15.617188 14.625 -14.796875 C 15.394531 -13.984375 15.957031 -13.078125 16.3125 -12.078125 C 16.664062 -11.085938 16.84375 -10.085938 16.84375 -9.078125 C 16.863281 -7.328125 16.503906 -5.765625 15.765625 -4.390625 C 15.023438 -3.023438 13.972656 -1.953125 12.609375 -1.171875 C 11.253906 -0.390625 9.660156 0 7.828125 0 Z M 4.328125 -2.203125 C 4.328125 -1.617188 4.425781 -1.164062 4.625 -0.84375 C 4.820312 -0.53125 5.265625 -0.375 5.953125 -0.375 L 7.78125 -0.375 C 9.957031 -0.375 11.632812 -1.003906 12.8125 -2.265625 C 13.988281 -3.523438 14.578125 -5.460938 14.578125 -8.078125 C 14.578125 -9.742188 14.25 -11.257812 13.59375 -12.625 C 12.945312 -13.988281 11.988281 -15.078125 10.71875 -15.890625 C 9.457031 -16.710938 7.894531 -17.125 6.03125 -17.125 L 4.328125 -17.125 Z M 4.328125 -2.203125 "/></g></g></g></svg>